<?plantuml 1.2026.2?><svg xmlns="http://www.w3.org/2000/svg" xmlns:xlink="http://www.w3.org/1999/xlink" contentStyleType="text/css" data-diagram-type="DESCRIPTION" height="307px" preserveAspectRatio="none" style="width:1073px;height:307px;background:#FFFFFF;" version="1.1" viewBox="0 0 1073 307" width="1073px" zoomAndPan="magnify"><defs/><g><!--entity _pushshift_api--><g class="entity" data-qualified-name="_pushshift_api" data-source-line="4" id="ent0002"><rect fill="#F1F1F1" height="58.1358" rx="2.5" ry="2.5" style="stroke:#181818;stroke-width:0.5;" width="113.9676" x="10.05" y="243.27"/><text fill="#000000" font-family="sans-serif" font-size="14" lengthAdjust="spacing" textLength="93.9676" x="20.05" y="268.2359">_pushshift_api</text><text fill="#000000" font-family="sans-serif" font-size="14" lengthAdjust="spacing" textLength="81.8017" x="20.05" y="287.3039">1 python file</text></g><!--entity _pushshift_community--><g class="entity" data-qualified-name="_pushshift_community" data-source-line="5" id="ent0003"><rect fill="#F1F1F1" height="58.1358" rx="2.5" ry="2.5" style="stroke:#181818;stroke-width:0.5;" width="168.3714" x="898.85" y="125.14"/><text fill="#000000" font-family="sans-serif" font-size="14" lengthAdjust="spacing" textLength="148.3714" x="908.85" y="150.1059">_pushshift_community</text><text fill="#000000" font-family="sans-serif" font-size="14" lengthAdjust="spacing" textLength="81.8017" x="908.85" y="169.1739">1 python file</text></g><!--entity _pushshift_file_handler--><g class="entity" data-qualified-name="_pushshift_file_handler" data-source-line="6" id="ent0004"><rect fill="#F1F1F1" height="58.1358" rx="2.5" ry="2.5" style="stroke:#181818;stroke-width:0.5;" width="171.1014" x="251.48" y="125.14"/><text fill="#000000" font-family="sans-serif" font-size="14" lengthAdjust="spacing" textLength="151.1014" x="261.48" y="150.1059">_pushshift_file_handler</text><text fill="#000000" font-family="sans-serif" font-size="14" lengthAdjust="spacing" textLength="81.8017" x="261.48" y="169.1739">1 python file</text></g><!--entity _pushshift_modeling--><g class="entity" data-qualified-name="_pushshift_modeling" data-source-line="7" id="ent0005"><rect fill="#F1F1F1" height="58.1358" rx="2.5" ry="2.5" style="stroke:#181818;stroke-width:0.5;" width="156.4435" x="457.81" y="125.14"/><text fill="#000000" font-family="sans-serif" font-size="14" lengthAdjust="spacing" textLength="136.4435" x="467.81" y="150.1059">_pushshift_modeling</text><text fill="#000000" font-family="sans-serif" font-size="14" lengthAdjust="spacing" textLength="81.8017" x="467.81" y="169.1739">1 python file</text></g><!--entity _pushshift_queries--><g class="entity" data-qualified-name="_pushshift_queries" data-source-line="8" id="ent0006"><rect fill="#F1F1F1" height="58.1358" rx="2.5" ry="2.5" style="stroke:#181818;stroke-width:0.5;" width="143.0455" x="649.51" y="125.14"/><text fill="#000000" font-family="sans-serif" font-size="14" lengthAdjust="spacing" textLength="123.0455" x="659.51" y="150.1059">_pushshift_queries</text><text fill="#000000" font-family="sans-serif" font-size="14" lengthAdjust="spacing" textLength="81.8017" x="659.51" y="169.1739">1 python file</text></g><!--entity _pushshift_scalers--><g class="entity" data-qualified-name="_pushshift_scalers" data-source-line="9" id="ent0007"><rect fill="#F1F1F1" height="58.1358" rx="2.5" ry="2.5" style="stroke:#181818;stroke-width:0.5;" width="139.1675" x="776.45" y="243.27"/><text fill="#000000" font-family="sans-serif" font-size="14" lengthAdjust="spacing" textLength="119.1675" x="786.45" y="268.2359">_pushshift_scalers</text><text fill="#000000" font-family="sans-serif" font-size="14" lengthAdjust="spacing" textLength="81.8017" x="786.45" y="287.3039">1 python file</text></g><!--entity _pushshift_subreddits--><g class="entity" data-qualified-name="_pushshift_subreddits" data-source-line="10" id="ent0008"><rect fill="#F1F1F1" height="58.1358" rx="2.5" ry="2.5" style="stroke:#181818;stroke-width:0.5;" width="164.1295" x="51.97" y="125.14"/><text fill="#000000" font-family="sans-serif" font-size="14" lengthAdjust="spacing" textLength="144.1295" x="61.97" y="150.1059">_pushshift_subreddits</text><text fill="#000000" font-family="sans-serif" font-size="14" lengthAdjust="spacing" textLength="81.8017" x="61.97" y="169.1739">1 python file</text></g><!--entity conftest--><g class="entity" data-qualified-name="conftest" data-source-line="11" id="ent0009"><rect fill="#F1F1F1" height="58.1358" rx="2.5" ry="2.5" style="stroke:#181818;stroke-width:0.5;" width="101.8017" x="638.13" y="7"/><text fill="#000000" font-family="sans-serif" font-size="14" lengthAdjust="spacing" textLength="53.3678" x="648.13" y="31.9659">conftest</text><text fill="#000000" font-family="sans-serif" font-size="14" lengthAdjust="spacing" textLength="81.8017" x="648.13" y="51.0339">1 python file</text></g><!--entity pushshift_python--><g class="entity" data-qualified-name="pushshift_python" data-source-line="12" id="ent0010"><rect fill="#F1F1F1" height="58.1358" rx="2.5" ry="2.5" style="stroke:#181818;stroke-width:0.5;" width="134.2536" x="468.91" y="7"/><text fill="#000000" font-family="sans-serif" font-size="14" lengthAdjust="spacing" textLength="114.2536" x="478.91" y="31.9659">pushshift_python</text><text fill="#000000" font-family="sans-serif" font-size="14" lengthAdjust="spacing" textLength="81.8017" x="478.91" y="51.0339">1 python file</text></g><!--link _pushshift_community to _pushshift_scalers--><g class="link" data-entity-1="ent0003" data-entity-2="ent0007" data-link-type="dependency" data-source-line="13" id="lnk11"><path d="M949.52,183.62 C928.29,201.61 905.5072,220.9307 884.2572,238.9407" fill="none" id="_pushshift_community-to-_pushshift_scalers" style="stroke:#181818;stroke-width:1;"/><polygon fill="#181818" points="879.68,242.82,889.132,240.0525,883.4943,239.5872,883.9596,233.9495,879.68,242.82" style="stroke:#181818;stroke-width:1;"/></g><!--link _pushshift_queries to _pushshift_scalers--><g class="link" data-entity-1="ent0006" data-entity-2="ent0007" data-link-type="dependency" data-source-line="14" id="lnk12"><path d="M751.61,183.62 C770.98,201.61 791.5428,220.7278 810.9428,238.7378" fill="none" id="_pushshift_queries-to-_pushshift_scalers" style="stroke:#181818;stroke-width:1;"/><polygon fill="#181818" points="815.34,242.82,811.4656,233.7652,811.6756,239.4182,806.0227,239.6282,815.34,242.82" style="stroke:#181818;stroke-width:1;"/></g><!--link _pushshift_subreddits to _pushshift_api--><g class="link" data-entity-1="ent0008" data-entity-2="ent0002" data-link-type="dependency" data-source-line="15" id="lnk13"><path d="M117.64,183.62 C107.26,201.61 96.8783,219.6128 86.4883,237.6228" fill="none" id="_pushshift_subreddits-to-_pushshift_api" style="stroke:#181818;stroke-width:1;"/><polygon fill="#181818" points="83.49,242.82,91.4522,237.0231,85.9885,238.489,84.5226,233.0254,83.49,242.82" style="stroke:#181818;stroke-width:1;"/></g><!--link pushshift_python to _pushshift_api--><g class="link" data-entity-1="ent0010" data-entity-2="ent0002" data-link-type="dependency" data-source-line="16" id="lnk14"><path d="M468.81,38.6 C345.05,42.99 88.81,59.92 34.03,125.14 C6,158.51 25.7162,205.6512 44.8162,237.8112" fill="none" id="pushshift_python-to-_pushshift_api" style="stroke:#181818;stroke-width:1;"/><polygon fill="#181818" points="47.88,242.97,46.7234,233.1893,45.3268,238.671,39.8451,237.2744,47.88,242.97" style="stroke:#181818;stroke-width:1;"/></g><!--link pushshift_python to _pushshift_community--><g class="link" data-entity-1="ent0010" data-entity-2="ent0003" data-link-type="dependency" data-source-line="17" id="lnk15"><path d="M603.61,59.96 C609.49,61.77 615.35,63.52 621.03,65.14 C731.37,96.48 760.65,97.75 872.03,125.14 C880.62,127.25 883.7584,128.0279 892.6984,130.2579" fill="none" id="pushshift_python-to-_pushshift_community" style="stroke:#181818;stroke-width:1;"/><polygon fill="#181818" points="898.52,131.71,890.7557,125.6507,893.6686,130.4999,888.8195,133.4129,898.52,131.71" style="stroke:#181818;stroke-width:1;"/></g><!--link pushshift_python to _pushshift_file_handler--><g class="link" data-entity-1="ent0010" data-entity-2="ent0004" data-link-type="dependency" data-source-line="18" id="lnk16"><path d="M487.1,65.63 C456.26,83.63 421.7721,103.7558 390.9621,121.7358" fill="none" id="pushshift_python-to-_pushshift_file_handler" style="stroke:#181818;stroke-width:1;"/><polygon fill="#181818" points="385.78,124.76,395.5693,123.6785,390.0984,122.2399,391.5371,116.769,385.78,124.76" style="stroke:#181818;stroke-width:1;"/></g><!--link pushshift_python to _pushshift_modeling--><g class="link" data-entity-1="ent0010" data-entity-2="ent0005" data-link-type="dependency" data-source-line="19" id="lnk17"><path d="M536.03,65.48 C536.03,83.48 536.03,100.67 536.03,118.69" fill="none" id="pushshift_python-to-_pushshift_modeling" style="stroke:#181818;stroke-width:1;"/><polygon fill="#181818" points="536.03,124.69,540.03,115.69,536.03,119.69,532.03,115.69,536.03,124.69" style="stroke:#181818;stroke-width:1;"/></g><!--link pushshift_python to _pushshift_queries--><g class="link" data-entity-1="ent0010" data-entity-2="ent0006" data-link-type="dependency" data-source-line="20" id="lnk18"><path d="M581.29,65.48 C609.96,83.48 641.8186,103.4795 670.5186,121.4995" fill="none" id="pushshift_python-to-_pushshift_queries" style="stroke:#181818;stroke-width:1;"/><polygon fill="#181818" points="675.6,124.69,670.1049,116.5167,671.3655,122.0313,665.8509,123.2919,675.6,124.69" style="stroke:#181818;stroke-width:1;"/></g><!--link pushshift_python to _pushshift_scalers--><g class="link" data-entity-1="ent0010" data-entity-2="ent0007" data-link-type="dependency" data-source-line="21" id="lnk19"><path d="M603.29,59.36 C609.29,61.32 615.27,63.27 621.03,65.14 C704.88,92.29 749.8,60.8 810.03,125.14 C840.14,157.29 846.094,204.4611 846.724,237.0511" fill="none" id="pushshift_python-to-_pushshift_scalers" style="stroke:#181818;stroke-width:1;"/><polygon fill="#181818" points="846.84,243.05,850.6653,233.9744,846.7434,238.0509,842.6668,234.129,846.84,243.05" style="stroke:#181818;stroke-width:1;"/></g><!--link pushshift_python to _pushshift_subreddits--><g class="link" data-entity-1="ent0010" data-entity-2="ent0008" data-link-type="dependency" data-source-line="22" id="lnk20"><path d="M468.75,56.51 C399.35,76.56 296.7842,106.1844 222.2742,127.7144" fill="none" id="pushshift_python-to-_pushshift_subreddits" style="stroke:#181818;stroke-width:1;"/><polygon fill="#181818" points="216.51,129.38,226.2667,130.7244,221.3135,127.992,224.0459,123.0388,216.51,129.38" style="stroke:#181818;stroke-width:1;"/></g><?plantuml-src dTB1ReCm383XEqzXzTx3Nc0lqUiab2QcH2DsbfW3Rp_GIg2CoDDkI7pvIO8p2f09cAEnUCDeaX5EG4pO24SGXZkBS03d4rhnJ4t-zBJ009P3d2N9JQO1OG667WCsvGakRHnpdtlVIMkY_w0tY9FqJD3v0IzWChoAojhvKs4aBvDIAAxIMTQqlI4tO59IUrgf1NOuU7eefPLLAbyZ9ezPYJnLfP6jcRUfDPwgrXZl2PtpecOAt9SiKoUOvMpn-cxljzwFFbjtDCtPhuRhzVtibBylxmzoEziHByDvtCz_p3QYcdoPG0sN8TFWEaYQMoz7TUN6lW40?></g></svg>
