<?plantuml 1.2026.2?><svg xmlns="http://www.w3.org/2000/svg" xmlns:xlink="http://www.w3.org/1999/xlink" contentStyleType="text/css" data-diagram-type="CLASS" height="1333px" preserveAspectRatio="none" style="width:1526px;height:1333px;background:#FFFFFF;" version="1.1" viewBox="0 0 1526 1333" width="1526px" zoomAndPan="magnify"><defs/><g><!--class _pushshift_api.api_agent--><g class="entity" data-qualified-name="_pushshift_api.api_agent" data-source-line="2" id="ent0002"><rect fill="#F1F1F1" height="257.7471" rx="2.5" ry="2.5" style="stroke:#181818;stroke-width:0.5;" width="198.9133" x="21.03" y="178.61"/><ellipse cx="84.0578" cy="194.61" fill="#ADD1B2" rx="11" ry="11" style="stroke:#181818;stroke-width:1;"/><path d="M84.1672,189.8913 Q83.2453,189.8913 82.5109,190.2038 Q81.7922,190.5163 81.2922,191.11 Q80.7922,191.6881 80.5109,192.5631 Q80.2453,193.4381 80.2453,194.5319 Q80.2453,195.9694 80.6828,197.0163 Q81.1359,198.0631 81.9797,198.61 Q82.839,199.1569 84.1515,199.1569 Q84.9328,199.1569 85.6203,199.0319 Q86.3234,198.8913 87.3234,198.5788 L87.3234,200.4538 Q86.464,200.7819 85.6984,200.9069 Q84.9484,201.0319 83.9328,201.0319 Q82.0109,201.0319 80.6984,200.235 Q79.4015,199.4225 78.7453,197.9538 Q78.089,196.4694 78.089,194.5006 Q78.089,193.0788 78.4797,191.9069 Q78.8859,190.7194 79.6672,189.8444 Q80.4484,188.9694 81.589,188.5006 Q82.7297,188.0163 84.1984,188.0163 Q85.1515,188.0163 86.0422,188.2194 Q86.9484,188.4069 87.8859,188.8756 L87.0578,190.6569 Q86.2765,190.2819 85.6203,190.0944 Q84.964,189.8913 84.1672,189.8913 Z " fill="#000000"/><text fill="#000000" font-family="sans-serif" font-size="14" lengthAdjust="spacing" textLength="64.3578" x="104.5578" y="200.042">api_agent</text><line style="stroke:#181818;stroke-width:0.5;" x1="22.03" x2="218.9433" y1="210.61" y2="210.61"/><text fill="#000000" font-family="sans-serif" font-size="14" lengthAdjust="spacing" textLength="116.3676" x="27.03" y="229.5759">application_name</text><text fill="#000000" font-family="sans-serif" font-size="14" lengthAdjust="spacing" textLength="53.9838" x="27.03" y="248.6439">client_id</text><text fill="#000000" font-family="sans-serif" font-size="14" lengthAdjust="spacing" textLength="81.8157" x="27.03" y="267.7118">client_secret</text><text fill="#000000" font-family="sans-serif" font-size="14" lengthAdjust="spacing" textLength="88.4237" x="27.03" y="286.7797">headers : dict</text><text fill="#000000" font-family="sans-serif" font-size="14" lengthAdjust="spacing" textLength="89.8797" x="27.03" y="305.8476">subreddits_df</text><text fill="#000000" font-family="sans-serif" font-size="14" lengthAdjust="spacing" textLength="135.1975" x="27.03" y="324.9155">subreddits_path : str</text><text fill="#000000" font-family="sans-serif" font-size="14" lengthAdjust="spacing" textLength="73.3177" x="27.03" y="343.9834">user_agent</text><text fill="#000000" font-family="sans-serif" font-size="14" lengthAdjust="spacing" textLength="65.1278" x="27.03" y="363.0514">user_pass</text><line style="stroke:#181818;stroke-width:0.5;" x1="22.03" x2="218.9433" y1="371.1533" y2="371.1533"/><text fill="#000000" font-family="sans-serif" font-size="14" lengthAdjust="spacing" textLength="186.9133" x="27.03" y="390.1193">get_top_subreddits(payload)</text><text fill="#000000" font-family="sans-serif" font-size="14" lengthAdjust="spacing" textLength="151.3394" x="27.03" y="409.1872">make_subreddits(path)</text><text fill="#000000" font-family="sans-serif" font-size="14" lengthAdjust="spacing" textLength="129.8215" x="27.03" y="428.2551">renew_auth_token()</text></g><!--class _pushshift_community.community--><g class="entity" data-qualified-name="_pushshift_community.community" data-source-line="15" id="ent0003"><rect fill="#F1F1F1" height="600.9696" rx="2.5" ry="2.5" style="stroke:#181818;stroke-width:0.5;" width="210.7852" x="255.1" y="7"/><ellipse cx="319.0028" cy="23" fill="#ADD1B2" rx="11" ry="11" style="stroke:#181818;stroke-width:1;"/><path d="M319.1121,18.2813 Q318.1903,18.2813 317.4559,18.5938 Q316.7371,18.9063 316.2371,19.5 Q315.7371,20.0781 315.4559,20.9531 Q315.1903,21.8281 315.1903,22.9219 Q315.1903,24.3594 315.6278,25.4063 Q316.0809,26.4531 316.9246,27 Q317.784,27.5469 319.0965,27.5469 Q319.8778,27.5469 320.5653,27.4219 Q321.2684,27.2813 322.2684,26.9688 L322.2684,28.8438 Q321.409,29.1719 320.6434,29.2969 Q319.8934,29.4219 318.8778,29.4219 Q316.9559,29.4219 315.6434,28.625 Q314.3465,27.8125 313.6903,26.3438 Q313.034,24.8594 313.034,22.8906 Q313.034,21.4688 313.4246,20.2969 Q313.8309,19.1094 314.6121,18.2344 Q315.3934,17.3594 316.534,16.8906 Q317.6746,16.4063 319.1434,16.4063 Q320.0965,16.4063 320.9871,16.6094 Q321.8934,16.7969 322.8309,17.2656 L322.0028,19.0469 Q321.2215,18.6719 320.5653,18.4844 Q319.909,18.2813 319.1121,18.2813 Z " fill="#000000"/><text fill="#000000" font-family="sans-serif" font-size="14" lengthAdjust="spacing" textLength="74.4797" x="339.5028" y="28.432">community</text><line style="stroke:#181818;stroke-width:0.5;" x1="256.1" x2="464.8852" y1="39" y2="39"/><text fill="#000000" font-family="sans-serif" font-size="14" lengthAdjust="spacing" textLength="51.1698" x="261.1" y="57.9659">authors</text><text fill="#000000" font-family="sans-serif" font-size="14" lengthAdjust="spacing" textLength="57.5398" x="261.1" y="77.0339">body_ref</text><text fill="#000000" font-family="sans-serif" font-size="14" lengthAdjust="spacing" textLength="69.6777" x="261.1" y="96.1018">comments</text><text fill="#000000" font-family="sans-serif" font-size="14" lengthAdjust="spacing" textLength="36.1199" x="261.1" y="115.1697">dates</text><text fill="#000000" font-family="sans-serif" font-size="14" lengthAdjust="spacing" textLength="91.5456" x="261.1" y="134.2376">df : NoneType</text><text fill="#000000" font-family="sans-serif" font-size="14" lengthAdjust="spacing" textLength="123.8435" x="261.1" y="153.3055">feature_comments</text><text fill="#000000" font-family="sans-serif" font-size="14" lengthAdjust="spacing" textLength="135.6875" x="261.1" y="172.3734">feature_submissions</text><text fill="#000000" font-family="sans-serif" font-size="14" lengthAdjust="spacing" textLength="54.6558" x="261.1" y="191.4414">features</text><text fill="#000000" font-family="sans-serif" font-size="14" lengthAdjust="spacing" textLength="24.4859" x="261.1" y="210.5093">gini</text><text fill="#000000" font-family="sans-serif" font-size="14" lengthAdjust="spacing" textLength="66.0658" x="261.1" y="229.5772">name : str</text><text fill="#000000" font-family="sans-serif" font-size="14" lengthAdjust="spacing" textLength="121.7855" x="261.1" y="248.6451">r_slash_references</text><text fill="#000000" font-family="sans-serif" font-size="14" lengthAdjust="spacing" textLength="57.6378" x="261.1" y="267.713">shannon</text><text fill="#000000" font-family="sans-serif" font-size="14" lengthAdjust="spacing" textLength="55.8458" x="261.1" y="286.7809">simpson</text><text fill="#000000" font-family="sans-serif" font-size="14" lengthAdjust="spacing" textLength="81.5217" x="261.1" y="305.8489">submissions</text><text fill="#000000" font-family="sans-serif" font-size="14" lengthAdjust="spacing" textLength="69.3137" x="261.1" y="324.9168">text_url_df</text><text fill="#000000" font-family="sans-serif" font-size="14" lengthAdjust="spacing" textLength="125.9295" x="261.1" y="343.9847">text_url_references</text><text fill="#000000" font-family="sans-serif" font-size="14" lengthAdjust="spacing" textLength="56.3778" x="261.1" y="363.0526">text_urls</text><text fill="#000000" font-family="sans-serif" font-size="14" lengthAdjust="spacing" textLength="49.9378" x="261.1" y="382.1205">title_ref</text><text fill="#000000" font-family="sans-serif" font-size="14" lengthAdjust="spacing" textLength="42.7558" x="261.1" y="401.1884">url_ref</text><line style="stroke:#181818;stroke-width:0.5;" x1="256.1" x2="464.8852" y1="409.2904" y2="409.2904"/><text fill="#000000" font-family="sans-serif" font-size="14" lengthAdjust="spacing" textLength="59.5698" x="261.1" y="428.2564">authors()</text><text fill="#000000" font-family="sans-serif" font-size="14" lengthAdjust="spacing" textLength="198.6872" x="261.1" y="447.3243">compare_authors(community)</text><text fill="#000000" font-family="sans-serif" font-size="14" lengthAdjust="spacing" textLength="44.5198" x="261.1" y="466.3922">dates()</text><text fill="#000000" font-family="sans-serif" font-size="14" lengthAdjust="spacing" textLength="94.5276" x="261.1" y="485.4601">features(drop)</text><text fill="#000000" font-family="sans-serif" font-size="14" lengthAdjust="spacing" textLength="32.8859" x="261.1" y="504.528">gini()</text><text fill="#000000" font-family="sans-serif" font-size="14" lengthAdjust="spacing" textLength="46.6898" x="261.1" y="523.5959">labels()</text><text fill="#000000" font-family="sans-serif" font-size="14" lengthAdjust="spacing" textLength="198.7852" x="261.1" y="542.6639">references(column, post_type)</text><text fill="#000000" font-family="sans-serif" font-size="14" lengthAdjust="spacing" textLength="66.0377" x="261.1" y="561.7318">shannon()</text><text fill="#000000" font-family="sans-serif" font-size="14" lengthAdjust="spacing" textLength="64.2458" x="261.1" y="580.7997">simpson()</text><text fill="#000000" font-family="sans-serif" font-size="14" lengthAdjust="spacing" textLength="153.4954" x="261.1" y="599.8676">urls(column, post_type)</text></g><!--class _pushshift_file_handler.file_handler--><g class="entity" data-qualified-name="_pushshift_file_handler.file_handler" data-source-line="46" id="ent0004"><rect fill="#F1F1F1" height="181.4754" rx="2.5" ry="2.5" style="stroke:#181818;stroke-width:0.5;" width="230.8331" x="501.08" y="216.74"/><ellipse cx="573.6417" cy="232.74" fill="#ADD1B2" rx="11" ry="11" style="stroke:#181818;stroke-width:1;"/><path d="M573.7511,228.0213 Q572.8292,228.0213 572.0949,228.3338 Q571.3761,228.6463 570.8761,229.24 Q570.3761,229.8181 570.0949,230.6931 Q569.8292,231.5681 569.8292,232.6619 Q569.8292,234.0994 570.2667,235.1463 Q570.7199,236.1931 571.5636,236.74 Q572.423,237.2869 573.7355,237.2869 Q574.5167,237.2869 575.2042,237.1619 Q575.9074,237.0213 576.9074,236.7088 L576.9074,238.5838 Q576.048,238.9119 575.2824,239.0369 Q574.5324,239.1619 573.5167,239.1619 Q571.5949,239.1619 570.2824,238.365 Q568.9855,237.5525 568.3292,236.0838 Q567.673,234.5994 567.673,232.6306 Q567.673,231.2088 568.0636,230.0369 Q568.4699,228.8494 569.2511,227.9744 Q570.0324,227.0994 571.173,226.6306 Q572.3136,226.1463 573.7824,226.1463 Q574.7355,226.1463 575.6261,226.3494 Q576.5324,226.5369 577.4699,227.0056 L576.6417,228.7869 Q575.8605,228.4119 575.2042,228.2244 Q574.548,228.0213 573.7511,228.0213 Z " fill="#000000"/><text fill="#000000" font-family="sans-serif" font-size="14" lengthAdjust="spacing" textLength="77.2097" x="594.1417" y="238.172">file_handler</text><line style="stroke:#181818;stroke-width:0.5;" x1="502.08" x2="730.9131" y1="248.74" y2="248.74"/><text fill="#000000" font-family="sans-serif" font-size="14" lengthAdjust="spacing" textLength="68.7677" x="507.08" y="267.7059">errors : int</text><text fill="#000000" font-family="sans-serif" font-size="14" lengthAdjust="spacing" textLength="104.7616" x="507.08" y="286.7739">files : NoneType</text><text fill="#000000" font-family="sans-serif" font-size="14" lengthAdjust="spacing" textLength="131.5155" x="507.08" y="305.8418">headers : NoneType</text><text fill="#000000" font-family="sans-serif" font-size="14" lengthAdjust="spacing" textLength="50.7078" x="507.08" y="324.9097">log : list</text><text fill="#000000" font-family="sans-serif" font-size="14" lengthAdjust="spacing" textLength="136.6815" x="507.08" y="343.9776">path_out : NoneType</text><text fill="#000000" font-family="sans-serif" font-size="14" lengthAdjust="spacing" textLength="75.4037" x="507.08" y="363.0455">written : int</text><line style="stroke:#181818;stroke-width:0.5;" x1="502.08" x2="730.9131" y1="371.1475" y2="371.1475"/><text fill="#000000" font-family="sans-serif" font-size="14" lengthAdjust="spacing" textLength="218.8331" x="507.08" y="390.1134">combine(headers, files, path_out)</text></g><!--class _pushshift_modeling.modeling--><g class="entity" data-qualified-name="_pushshift_modeling.modeling" data-source-line="55" id="ent0005"><rect fill="#F1F1F1" height="658.1733" rx="2.5" ry="2.5" style="stroke:#181818;stroke-width:0.5;" width="226.9832" x="7" y="667.97"/><ellipse cx="84.9657" cy="683.97" fill="#ADD1B2" rx="11" ry="11" style="stroke:#181818;stroke-width:1;"/><path d="M85.0751,679.2513 Q84.1532,679.2513 83.4188,679.5638 Q82.7001,679.8763 82.2001,680.47 Q81.7001,681.0481 81.4188,681.9231 Q81.1532,682.7981 81.1532,683.8919 Q81.1532,685.3294 81.5907,686.3763 Q82.0438,687.4231 82.8876,687.97 Q83.747,688.5169 85.0595,688.5169 Q85.8407,688.5169 86.5282,688.3919 Q87.2313,688.2513 88.2313,687.9388 L88.2313,689.8138 Q87.372,690.1419 86.6063,690.2669 Q85.8563,690.3919 84.8407,690.3919 Q82.9188,690.3919 81.6063,689.595 Q80.3095,688.7825 79.6532,687.3138 Q78.997,685.8294 78.997,683.8606 Q78.997,682.4388 79.3876,681.2669 Q79.7938,680.0794 80.5751,679.2044 Q81.3563,678.3294 82.497,677.8606 Q83.6376,677.3763 85.1063,677.3763 Q86.0595,677.3763 86.9501,677.5794 Q87.8563,677.7669 88.7938,678.2356 L87.9657,680.0169 Q87.1845,679.6419 86.5282,679.4544 Q85.872,679.2513 85.0751,679.2513 Z " fill="#000000"/><text fill="#000000" font-family="sans-serif" font-size="14" lengthAdjust="spacing" textLength="62.5518" x="105.4657" y="689.402">modeling</text><line style="stroke:#181818;stroke-width:0.5;" x1="8" x2="232.9832" y1="699.97" y2="699.97"/><text fill="#000000" font-family="sans-serif" font-size="14" lengthAdjust="spacing" textLength="8.204" x="13" y="718.9359">X</text><text fill="#000000" font-family="sans-serif" font-size="14" lengthAdjust="spacing" textLength="39.1299" x="13" y="738.0039">X_test</text><text fill="#000000" font-family="sans-serif" font-size="14" lengthAdjust="spacing" textLength="45.3738" x="13" y="757.0718">X_train</text><text fill="#000000" font-family="sans-serif" font-size="14" lengthAdjust="spacing" textLength="99.7776" x="13" y="776.1397">confusion : dict</text><text fill="#000000" font-family="sans-serif" font-size="14" lengthAdjust="spacing" textLength="13.4259" x="13" y="795.2076">df</text><text fill="#000000" font-family="sans-serif" font-size="14" lengthAdjust="spacing" textLength="13.664" x="13" y="814.2755">dt</text><text fill="#000000" font-family="sans-serif" font-size="14" lengthAdjust="spacing" textLength="128.8555" x="13" y="833.3434">fpr_tpr_thresh : dict</text><text fill="#000000" font-family="sans-serif" font-size="14" lengthAdjust="spacing" textLength="9.394" x="13" y="852.4114">lr</text><text fill="#000000" font-family="sans-serif" font-size="14" lengthAdjust="spacing" textLength="83.4117" x="13" y="871.4793">models : dict</text><text fill="#000000" font-family="sans-serif" font-size="14" lengthAdjust="spacing" textLength="185.7373" x="13" y="890.5472">precision_recall_thresh : dict</text><text fill="#000000" font-family="sans-serif" font-size="14" lengthAdjust="spacing" textLength="150.5414" x="13" y="909.6151">prediction_scores : dict</text><text fill="#000000" font-family="sans-serif" font-size="14" lengthAdjust="spacing" textLength="108.7516" x="13" y="928.683">predictions : dict</text><text fill="#000000" font-family="sans-serif" font-size="14" lengthAdjust="spacing" textLength="10.598" x="13" y="947.7509">rf</text><text fill="#000000" font-family="sans-serif" font-size="14" lengthAdjust="spacing" textLength="18.4939" x="13" y="966.8189">rfe</text><text fill="#000000" font-family="sans-serif" font-size="14" lengthAdjust="spacing" textLength="40.8378" x="13" y="985.8868">rs : int</text><text fill="#000000" font-family="sans-serif" font-size="14" lengthAdjust="spacing" textLength="77.3077" x="13" y="1004.9547">scores : dict</text><text fill="#000000" font-family="sans-serif" font-size="14" lengthAdjust="spacing" textLength="58.5898" x="13" y="1024.0226">supports</text><text fill="#000000" font-family="sans-serif" font-size="14" lengthAdjust="spacing" textLength="20.5379" x="13" y="1043.0905">svc</text><text fill="#000000" font-family="sans-serif" font-size="14" lengthAdjust="spacing" textLength="7.14" x="13" y="1062.1584">y</text><text fill="#000000" font-family="sans-serif" font-size="14" lengthAdjust="spacing" textLength="38.0659" x="13" y="1081.2264">y_test</text><text fill="#000000" font-family="sans-serif" font-size="14" lengthAdjust="spacing" textLength="44.3098" x="13" y="1100.2943">y_train</text><line style="stroke:#181818;stroke-width:0.5;" x1="8" x2="232.9832" y1="1108.3963" y2="1108.3963"/><text fill="#000000" font-family="sans-serif" font-size="14" lengthAdjust="spacing" textLength="117.2215" x="13" y="1127.3622">decision_tree(md)</text><text fill="#000000" font-family="sans-serif" font-size="14" lengthAdjust="spacing" textLength="82.2217" x="13" y="1146.4301">fptpt(model)</text><text fill="#000000" font-family="sans-serif" font-size="14" lengthAdjust="spacing" textLength="164.7234" x="13" y="1165.498">linear_regression(mi, rfe)</text><text fill="#000000" font-family="sans-serif" font-size="14" lengthAdjust="spacing" textLength="138.8095" x="13" y="1184.5659">plot_pr_curve(model)</text><text fill="#000000" font-family="sans-serif" font-size="14" lengthAdjust="spacing" textLength="138.6695" x="13" y="1203.6339">plot_ro_curve(model)</text><text fill="#000000" font-family="sans-serif" font-size="14" lengthAdjust="spacing" textLength="69.5237" x="13" y="1222.7018">prt(model)</text><text fill="#000000" font-family="sans-serif" font-size="14" lengthAdjust="spacing" textLength="122.3455" x="13" y="1241.7697">random_forest(ne)</text><text fill="#000000" font-family="sans-serif" font-size="14" lengthAdjust="spacing" textLength="158.7874" x="13" y="1260.8376">resample_train(method)</text><text fill="#000000" font-family="sans-serif" font-size="14" lengthAdjust="spacing" textLength="85.6517" x="13" y="1279.9055">score(model)</text><text fill="#000000" font-family="sans-serif" font-size="14" lengthAdjust="spacing" textLength="165.5914" x="13" y="1298.9734">score_predictions(model)</text><text fill="#000000" font-family="sans-serif" font-size="14" lengthAdjust="spacing" textLength="214.9832" x="13" y="1318.0414">support_vector_classifier(c, kern)</text></g><!--class _pushshift_queries.pushshift_file_query--><g class="entity" data-qualified-name="_pushshift_queries.pushshift_file_query" data-source-line="89" id="ent0006"><rect fill="#F1F1F1" height="410.2904" rx="2.5" ry="2.5" style="stroke:#181818;stroke-width:0.5;" width="450.9824" x="767" y="102.34"/><ellipse cx="922.2875" cy="118.34" fill="#ADD1B2" rx="11" ry="11" style="stroke:#181818;stroke-width:1;"/><path d="M922.3968,113.6213 Q921.475,113.6213 920.7406,113.9338 Q920.0218,114.2463 919.5218,114.84 Q919.0218,115.4181 918.7406,116.2931 Q918.475,117.1681 918.475,118.2619 Q918.475,119.6994 918.9125,120.7463 Q919.3656,121.7931 920.2093,122.34 Q921.0687,122.8869 922.3812,122.8869 Q923.1625,122.8869 923.85,122.7619 Q924.5531,122.6213 925.5531,122.3088 L925.5531,124.1838 Q924.6937,124.5119 923.9281,124.6369 Q923.1781,124.7619 922.1625,124.7619 Q920.2406,124.7619 918.9281,123.965 Q917.6312,123.1525 916.975,121.6838 Q916.3187,120.1994 916.3187,118.2306 Q916.3187,116.8088 916.7093,115.6369 Q917.1156,114.4494 917.8968,113.5744 Q918.6781,112.6994 919.8187,112.2306 Q920.9593,111.7463 922.4281,111.7463 Q923.3812,111.7463 924.2718,111.9494 Q925.1781,112.1369 926.1156,112.6056 L925.2875,114.3869 Q924.5062,114.0119 923.85,113.8244 Q923.1937,113.6213 922.3968,113.6213 Z " fill="#000000"/><text fill="#000000" font-family="sans-serif" font-size="14" lengthAdjust="spacing" textLength="131.9075" x="942.7875" y="123.772">pushshift_file_query</text><line style="stroke:#181818;stroke-width:0.5;" x1="768" x2="1216.9824" y1="134.34" y2="134.34"/><text fill="#000000" font-family="sans-serif" font-size="14" lengthAdjust="spacing" textLength="185.8213" x="773" y="153.3059">comment_folder_path : Path</text><text fill="#000000" font-family="sans-serif" font-size="14" lengthAdjust="spacing" textLength="69.6777" x="773" y="172.3739">comments</text><text fill="#000000" font-family="sans-serif" font-size="14" lengthAdjust="spacing" textLength="20.5379" x="773" y="191.4418">csv</text><text fill="#000000" font-family="sans-serif" font-size="14" lengthAdjust="spacing" textLength="65.8837" x="773" y="210.5097">csv_writer</text><text fill="#000000" font-family="sans-serif" font-size="14" lengthAdjust="spacing" textLength="13.4259" x="773" y="229.5776">df</text><text fill="#000000" font-family="sans-serif" font-size="14" lengthAdjust="spacing" textLength="68.7677" x="773" y="248.6455">errors : int</text><text fill="#000000" font-family="sans-serif" font-size="14" lengthAdjust="spacing" textLength="105.7276" x="773" y="267.7134">file_counter : int</text><text fill="#000000" font-family="sans-serif" font-size="14" lengthAdjust="spacing" textLength="83.4117" x="773" y="286.7814">headers : list</text><text fill="#000000" font-family="sans-serif" font-size="14" lengthAdjust="spacing" textLength="109.5636" x="773" y="305.8493">line_counter : int</text><text fill="#000000" font-family="sans-serif" font-size="14" lengthAdjust="spacing" textLength="102.8576" x="773" y="324.9172">oversized : bool</text><text fill="#000000" font-family="sans-serif" font-size="14" lengthAdjust="spacing" textLength="114.6316" x="773" y="343.9851">post_counter : int</text><text fill="#000000" font-family="sans-serif" font-size="14" lengthAdjust="spacing" textLength="197.6653" x="773" y="363.053">submission_folder_path : Path</text><text fill="#000000" font-family="sans-serif" font-size="14" lengthAdjust="spacing" textLength="81.5217" x="773" y="382.1209">submissions</text><text fill="#000000" font-family="sans-serif" font-size="14" lengthAdjust="spacing" textLength="108.3316" x="773" y="401.1889">working_file : str</text><text fill="#000000" font-family="sans-serif" font-size="14" lengthAdjust="spacing" textLength="98.3076" x="773" y="420.2568">write_path : str</text><line style="stroke:#181818;stroke-width:0.5;" x1="768" x2="1216.9824" y1="428.3588" y2="428.3588"/><text fill="#000000" font-family="sans-serif" font-size="14" lengthAdjust="spacing" textLength="254.0291" x="773" y="447.3247">export(path, to_export, export_format)</text><text fill="#000000" font-family="sans-serif" font-size="14" lengthAdjust="spacing" textLength="151.6754" x="773" y="466.3926">make_query(oversized)</text><text fill="#000000" font-family="sans-serif" font-size="14" lengthAdjust="spacing" textLength="99.7916" x="773" y="485.4605">read_lines_zst()</text><text fill="#000000" font-family="sans-serif" font-size="14" lengthAdjust="spacing" textLength="438.9824" x="773" y="504.5284">set_parent_folders(submission_folder_path, comment_folder_path)</text></g><!--class _pushshift_queries.pushshift_web_query--><g class="entity" data-qualified-name="_pushshift_queries.pushshift_web_query" data-source-line="110" id="ent0007"><rect fill="#F1F1F1" height="314.9508" rx="2.5" ry="2.5" style="stroke:#181818;stroke-width:0.5;" width="266.0291" x="1253.48" y="150.01"/><ellipse cx="1312.5038" cy="166.01" fill="#ADD1B2" rx="11" ry="11" style="stroke:#181818;stroke-width:1;"/><path d="M1312.6132,161.2913 Q1311.6913,161.2913 1310.9569,161.6038 Q1310.2382,161.9163 1309.7382,162.51 Q1309.2382,163.0881 1308.9569,163.9631 Q1308.6913,164.8381 1308.6913,165.9319 Q1308.6913,167.3694 1309.1288,168.4163 Q1309.5819,169.4631 1310.4257,170.01 Q1311.2851,170.5569 1312.5976,170.5569 Q1313.3788,170.5569 1314.0663,170.4319 Q1314.7694,170.2913 1315.7694,169.9788 L1315.7694,171.8538 Q1314.9101,172.1819 1314.1444,172.3069 Q1313.3944,172.4319 1312.3788,172.4319 Q1310.4569,172.4319 1309.1444,171.635 Q1307.8476,170.8225 1307.1913,169.3538 Q1306.5351,167.8694 1306.5351,165.9006 Q1306.5351,164.4788 1306.9257,163.3069 Q1307.3319,162.1194 1308.1132,161.2444 Q1308.8944,160.3694 1310.0351,159.9006 Q1311.1757,159.4163 1312.6444,159.4163 Q1313.5976,159.4163 1314.4882,159.6194 Q1315.3944,159.8069 1316.3319,160.2756 L1315.5038,162.0569 Q1314.7226,161.6819 1314.0663,161.4944 Q1313.4101,161.2913 1312.6132,161.2913 Z " fill="#000000"/><text fill="#000000" font-family="sans-serif" font-size="14" lengthAdjust="spacing" textLength="139.4814" x="1333.0038" y="171.442">pushshift_web_query</text><line style="stroke:#181818;stroke-width:0.5;" x1="1254.48" x2="1518.5091" y1="182.01" y2="182.01"/><text fill="#000000" font-family="sans-serif" font-size="14" lengthAdjust="spacing" textLength="129.4015" x="1259.48" y="200.9759">api_hit_counter : int</text><text fill="#000000" font-family="sans-serif" font-size="14" lengthAdjust="spacing" textLength="115.8076" x="1259.48" y="220.0439">comment_url : str</text><text fill="#000000" font-family="sans-serif" font-size="14" lengthAdjust="spacing" textLength="69.6777" x="1259.48" y="239.1118">comments</text><text fill="#000000" font-family="sans-serif" font-size="14" lengthAdjust="spacing" textLength="20.5379" x="1259.48" y="258.1797">csv</text><text fill="#000000" font-family="sans-serif" font-size="14" lengthAdjust="spacing" textLength="65.8837" x="1259.48" y="277.2476">csv_writer</text><text fill="#000000" font-family="sans-serif" font-size="14" lengthAdjust="spacing" textLength="13.4259" x="1259.48" y="296.3155">df</text><text fill="#000000" font-family="sans-serif" font-size="14" lengthAdjust="spacing" textLength="83.4117" x="1259.48" y="315.3834">headers : list</text><text fill="#000000" font-family="sans-serif" font-size="14" lengthAdjust="spacing" textLength="102.8576" x="1259.48" y="334.4514">oversized : bool</text><text fill="#000000" font-family="sans-serif" font-size="14" lengthAdjust="spacing" textLength="127.6515" x="1259.48" y="353.5193">submission_url : str</text><text fill="#000000" font-family="sans-serif" font-size="14" lengthAdjust="spacing" textLength="81.5217" x="1259.48" y="372.5872">submissions</text><text fill="#000000" font-family="sans-serif" font-size="14" lengthAdjust="spacing" textLength="98.3076" x="1259.48" y="391.6551">write_path : str</text><line style="stroke:#181818;stroke-width:0.5;" x1="1254.48" x2="1518.5091" y1="399.7571" y2="399.7571"/><text fill="#000000" font-family="sans-serif" font-size="14" lengthAdjust="spacing" textLength="254.0291" x="1259.48" y="418.723">export(path, to_export, export_format)</text><text fill="#000000" font-family="sans-serif" font-size="14" lengthAdjust="spacing" textLength="195.4532" x="1259.48" y="437.7909">make_query(oversized, _path)</text><text fill="#000000" font-family="sans-serif" font-size="14" lengthAdjust="spacing" textLength="79.3377" x="1259.48" y="456.8589">update_url()</text></g><!--class _pushshift_queries.query--><g class="entity" data-qualified-name="_pushshift_queries.query" data-source-line="126" id="ent0008"><rect fill="#F1F1F1" height="200.5433" rx="2.5" ry="2.5" style="stroke:#181818;stroke-width:0.5;" width="247.8711" x="1065.56" y="896.78"/><ellipse cx="1166.2056" cy="912.78" fill="#ADD1B2" rx="11" ry="11" style="stroke:#181818;stroke-width:1;"/><path d="M1166.315,908.0613 Q1165.3931,908.0613 1164.6588,908.3738 Q1163.94,908.6863 1163.44,909.28 Q1162.94,909.8581 1162.6588,910.7331 Q1162.3931,911.6081 1162.3931,912.7019 Q1162.3931,914.1394 1162.8306,915.1863 Q1163.2838,916.2331 1164.1275,916.78 Q1164.9869,917.3269 1166.2994,917.3269 Q1167.0806,917.3269 1167.7681,917.2019 Q1168.4713,917.0613 1169.4713,916.7488 L1169.4713,918.6238 Q1168.6119,918.9519 1167.8463,919.0769 Q1167.0963,919.2019 1166.0806,919.2019 Q1164.1588,919.2019 1162.8463,918.405 Q1161.5494,917.5925 1160.8931,916.1238 Q1160.2369,914.6394 1160.2369,912.6706 Q1160.2369,911.2488 1160.6275,910.0769 Q1161.0338,908.8894 1161.815,908.0144 Q1162.5963,907.1394 1163.7369,906.6706 Q1164.8775,906.1863 1166.3463,906.1863 Q1167.2994,906.1863 1168.19,906.3894 Q1169.0963,906.5769 1170.0338,907.0456 L1169.2056,908.8269 Q1168.4244,908.4519 1167.7681,908.2644 Q1167.1119,908.0613 1166.315,908.0613 Z " fill="#000000"/><text fill="#000000" font-family="sans-serif" font-size="14" lengthAdjust="spacing" textLength="38.0798" x="1186.7056" y="918.212">query</text><line style="stroke:#181818;stroke-width:0.5;" x1="1066.56" x2="1312.4311" y1="928.78" y2="928.78"/><text fill="#000000" font-family="sans-serif" font-size="14" lengthAdjust="spacing" textLength="59.7518" x="1071.56" y="947.7459">after : int</text><text fill="#000000" font-family="sans-serif" font-size="14" lengthAdjust="spacing" textLength="121.3795" x="1071.56" y="966.8139">after_dt : datetime</text><text fill="#000000" font-family="sans-serif" font-size="14" lengthAdjust="spacing" textLength="71.8197" x="1071.56" y="985.8818">before : int</text><text fill="#000000" font-family="sans-serif" font-size="14" lengthAdjust="spacing" textLength="133.4475" x="1071.56" y="1004.9497">before_dt : datetime</text><text fill="#000000" font-family="sans-serif" font-size="14" lengthAdjust="spacing" textLength="141.8754" x="1071.56" y="1024.0176">post_type : NoneType</text><text fill="#000000" font-family="sans-serif" font-size="14" lengthAdjust="spacing" textLength="38.0798" x="1071.56" y="1043.0855">query</text><text fill="#000000" font-family="sans-serif" font-size="14" lengthAdjust="spacing" textLength="28.6999" x="1071.56" y="1062.1534">type</text><line style="stroke:#181818;stroke-width:0.5;" x1="1066.56" x2="1312.4311" y1="1070.2554" y2="1070.2554"/><text fill="#000000" font-family="sans-serif" font-size="14" lengthAdjust="spacing" textLength="235.8711" x="1071.56" y="1089.2214">create_common_data(p_type_, post)</text></g><!--class _pushshift_subreddits.subreddits--><g class="entity" data-qualified-name="_pushshift_subreddits.subreddits" data-source-line="136" id="ent0009"><rect fill="#F1F1F1" height="276.815" rx="2.5" ry="2.5" style="stroke:#181818;stroke-width:0.5;" width="463.1903" x="268.9" y="858.65"/><ellipse cx="461.1263" cy="874.65" fill="#ADD1B2" rx="11" ry="11" style="stroke:#181818;stroke-width:1;"/><path d="M461.2357,869.9313 Q460.3138,869.9313 459.5794,870.2438 Q458.8607,870.5563 458.3607,871.15 Q457.8607,871.7281 457.5794,872.6031 Q457.3138,873.4781 457.3138,874.5719 Q457.3138,876.0094 457.7513,877.0563 Q458.2044,878.1031 459.0482,878.65 Q459.9075,879.1969 461.22,879.1969 Q462.0013,879.1969 462.6888,879.0719 Q463.3919,878.9313 464.3919,878.6188 L464.3919,880.4938 Q463.5325,880.8219 462.7669,880.9469 Q462.0169,881.0719 461.0013,881.0719 Q459.0794,881.0719 457.7669,880.275 Q456.47,879.4625 455.8138,877.9938 Q455.1575,876.5094 455.1575,874.5406 Q455.1575,873.1188 455.5482,871.9469 Q455.9544,870.7594 456.7357,869.8844 Q457.5169,869.0094 458.6575,868.5406 Q459.7982,868.0563 461.2669,868.0563 Q462.22,868.0563 463.1107,868.2594 Q464.0169,868.4469 464.9544,868.9156 L464.1263,870.6969 Q463.345,870.3219 462.6888,870.1344 Q462.0325,869.9313 461.2357,869.9313 Z " fill="#000000"/><text fill="#000000" font-family="sans-serif" font-size="14" lengthAdjust="spacing" textLength="70.2377" x="481.6263" y="880.082">subreddits</text><line style="stroke:#181818;stroke-width:0.5;" x1="269.9" x2="731.0903" y1="890.65" y2="890.65"/><text fill="#000000" font-family="sans-serif" font-size="14" lengthAdjust="spacing" textLength="46.3818" x="274.9" y="909.6159">master</text><text fill="#000000" font-family="sans-serif" font-size="14" lengthAdjust="spacing" textLength="34.0199" x="274.9" y="928.6839">multi</text><text fill="#000000" font-family="sans-serif" font-size="14" lengthAdjust="spacing" textLength="31.1779" x="274.9" y="947.7518">nsfw</text><text fill="#000000" font-family="sans-serif" font-size="14" lengthAdjust="spacing" textLength="58.7438" x="274.9" y="966.8197">path : str</text><text fill="#000000" font-family="sans-serif" font-size="14" lengthAdjust="spacing" textLength="22.5259" x="274.9" y="985.8876">sfw</text><text fill="#000000" font-family="sans-serif" font-size="14" lengthAdjust="spacing" textLength="33.4039" x="274.9" y="1004.9555">sized</text><line style="stroke:#181818;stroke-width:0.5;" x1="269.9" x2="731.0903" y1="1013.0575" y2="1013.0575"/><text fill="#000000" font-family="sans-serif" font-size="14" lengthAdjust="spacing" textLength="257.417" x="274.9" y="1032.0234">make_subreddits(api_credentials, path)</text><text fill="#000000" font-family="sans-serif" font-size="14" lengthAdjust="spacing" textLength="359.4066" x="274.9" y="1051.0914">split_creation_time_date(min_datetime, max_datetime)</text><text fill="#000000" font-family="sans-serif" font-size="14" lengthAdjust="spacing" textLength="451.1903" x="274.9" y="1070.1593">split_creation_time_unix(min_unix_timestamp, max_unix_timestamp)</text><text fill="#000000" font-family="sans-serif" font-size="14" lengthAdjust="spacing" textLength="303.9668" x="274.9" y="1089.2272">split_multi(nsfw, sizes, unix_times, date_times)</text><text fill="#000000" font-family="sans-serif" font-size="14" lengthAdjust="spacing" textLength="73.3877" x="274.9" y="1108.2951">split_nsfw()</text><text fill="#000000" font-family="sans-serif" font-size="14" lengthAdjust="spacing" textLength="292.0949" x="274.9" y="1127.363">split_size(min_subscribers, max_subscribers)</text></g><!--link _pushshift_queries.pushshift_file_query to _pushshift_queries.query--><g class="link" data-entity-1="ent0006" data-entity-2="ent0008" data-link-type="extension" data-source-line="150" id="lnk10"><path codeLine="150" d="M1051.06,512.91 C1087.36,639.59 1127.4031,779.346 1156.0431,879.326" fill="none" id="_pushshift_queries.pushshift_file_query-to-_pushshift_queries.query" style="stroke:#181818;stroke-width:1;"/><polygon fill="none" points="1161,896.63,1161.8111,877.6737,1150.2751,880.9783,1161,896.63" style="stroke:#181818;stroke-width:1;"/></g><!--link _pushshift_queries.pushshift_web_query to _pushshift_queries.query--><g class="link" data-entity-1="ent0007" data-entity-2="ent0008" data-link-type="extension" data-source-line="151" id="lnk11"><path codeLine="151" d="M1341.54,465.36 C1303.59,597.84 1255.3371,766.216 1222.9771,879.176" fill="none" id="_pushshift_queries.pushshift_web_query-to-_pushshift_queries.query" style="stroke:#181818;stroke-width:1;"/><polygon fill="none" points="1218.02,896.48,1228.7451,880.8284,1217.2091,877.5237,1218.02,896.48" style="stroke:#181818;stroke-width:1;"/></g><?plantuml-src hLR1ikic3DtVh_2ybJFZbm_eef_GwKoxw8uXHewPYmqFS7Bpslvx9M43JlpUt4KNSK18GkT820B4PfOJ12Tx-0ESz39QtynsXhVUo12QBz9f8Qymno-D38rmInZ3g8SeSE6S5vk_tvf6EcTqBwEsio2lAEgDnbMXLHa7w3r4d8yW5VZG_D8etPCWB1SFIkaOX1hsSoVZY8eXUfGl0NpQTfiu31N7LuWYMYUAOUlamrYfJhWwoNVOByMHv1vck0kvn16Dts5kJs__RkXxEqtBhEFZ6NrUEETHuW3TM4_1NAnw20y4X5GmMf8g6O7_1uJp6_ByvyCHKGF8k7WGbUecmf0d7GAoMaaPhfur_X7LcHil0aO-qiQ0m7fM3AESCQSqqfCBQRJp6k4ZYiMRH7oUxRniKXxhQ615joeMyEqfOSPo0h79CasdZGLMs-2qobjtMa7nYf4NC4cfX85kp3BDNUDim5mZTwU2ZtLNX3ocO8yiSde7ZIZGM1dmpnckryxrXFCCtbkkNSrLIEjXdz5ItfNGs2iAZ0vaH0Kex1BtAdUlOuGvkqRYBdg6TlNNfRswR5t1cQm2e-VhCvHDVju63E4l-WbCH4m3B_NC-yt3GdLH3YONXMASpej8ln5pDXODGxN7tglpx3pqcZnXUVJIc1ShLA0HQOJUUWX7IvNG3_mXbYhkdqt3ufprV8J2hSVlWtuRq4S6ghReeWTe9-uHWuikjWo4Qn29bnx3l-8EfDjEkgC8QD4P6mLoqI_-1iM6nTw-Y7tbrsCbsKaC57XiPqX57kJaiCmuldO2F3SS4-ChjZmL5J_LKa8kRj1Z6nTS5NhGuDk-Qzx1prMjF1NwjmNyIvCZeOPmFjBb4bgx5G8nYjimT-dVyM_VzVfmIrz1rGr-gwc3KuGTS9bH9GlBELgF3INbHSlUK4T_1uMIYxM66AS3_wnNsjvnqFksUBV-7OyBmyujbY7iRoJu8DxvHkcQQ4MQTwkSyZp9cEyWvg_D4QVaIoK8M13ViI8ucNYPKGVDz8RsEFZkA0s7cRx3vRE9pghhpQx5g5_Pt3R6Hfkv-4JQNr9waBqAQ-tzAJ__SogwHcolWiNH9KLxr--1dx9NyJNKBF5CAEhpv3DgVXfTW8v_LahJ5wryQ-ql2TwAxk4qnHSL1KlK8rzeBbl7LYBTUnM2yW1wXb5MpcN8S2OPKlQcnKH-SeJXlbvW9JCiOXeF7bjKGHYbmihGqgpN5vSvlXcZO03SYn4s0S26fna94z6Xluyy-v4PFYy-s8m6B0eHMseotikA2uRK4g2EWyVGYch7gKZZOaBARPcI5M-BS4FlzOLlQTgp4b06FjjPltxzvzSVrjVR9u_jJvty1m00?></g></svg>
