<?plantuml 1.2026.2?><svg xmlns="http://www.w3.org/2000/svg" xmlns:xlink="http://www.w3.org/1999/xlink" contentStyleType="text/css" data-diagram-type="CLASS" height="308px" preserveAspectRatio="none" style="width:1116px;height:308px;background:#FFFFFF;" version="1.1" viewBox="0 0 1116 308" width="1116px" zoomAndPan="magnify"><defs/><g><path d="M10.65,242.872 L111.7426,242.872 A3.75,3.75 0 0 1 114.2426,245.372 L121.2426,267.9399 L125.7426,267.9399 A2.5,2.5 0 0 1 128.2426,270.4399 L128.2426,298.5078 A2.5,2.5 0 0 1 125.7426,301.0078 L10.65,301.0078 A2.5,2.5 0 0 1 8.15,298.5078 L8.15,245.372 A2.5,2.5 0 0 1 10.65,242.872" fill="#F1F1F1" style="stroke:#181818;stroke-width:0.5;"/><line style="stroke:#181818;stroke-width:0.5;" x1="8.15" x2="121.2426" y1="267.9399" y2="267.9399"/><text fill="#000000" font-family="sans-serif" font-size="14" font-weight="bold" lengthAdjust="spacing" textLength="100.0926" x="12.15" y="259.8379">_pushshift_api</text><path d="M935.14,124.742 L1093.2614,124.742 A3.75,3.75 0 0 1 1095.7614,127.242 L1102.7614,149.8099 L1107.2614,149.8099 A2.5,2.5 0 0 1 1109.7614,152.3099 L1109.7614,180.3778 A2.5,2.5 0 0 1 1107.2614,182.8778 L935.14,182.8778 A2.5,2.5 0 0 1 932.64,180.3778 L932.64,127.242 A2.5,2.5 0 0 1 935.14,124.742" fill="#F1F1F1" style="stroke:#181818;stroke-width:0.5;"/><line style="stroke:#181818;stroke-width:0.5;" x1="932.64" x2="1102.7614" y1="149.8099" y2="149.8099"/><text fill="#000000" font-family="sans-serif" font-size="14" font-weight="bold" lengthAdjust="spacing" textLength="157.1214" x="936.64" y="141.7079">_pushshift_community</text><path d="M262.11,124.742 L424.2739,124.742 A3.75,3.75 0 0 1 426.7739,127.242 L433.7739,149.8099 L438.2739,149.8099 A2.5,2.5 0 0 1 440.7739,152.3099 L440.7739,180.3778 A2.5,2.5 0 0 1 438.2739,182.8778 L262.11,182.8778 A2.5,2.5 0 0 1 259.61,180.3778 L259.61,127.242 A2.5,2.5 0 0 1 262.11,124.742" fill="#F1F1F1" style="stroke:#181818;stroke-width:0.5;"/><line style="stroke:#181818;stroke-width:0.5;" x1="259.61" x2="433.7739" y1="149.8099" y2="149.8099"/><text fill="#000000" font-family="sans-serif" font-size="14" font-weight="bold" lengthAdjust="spacing" textLength="161.1639" x="263.61" y="141.7079">_pushshift_file_handler</text><path d="M478.32,124.742 L624.076,124.742 A3.75,3.75 0 0 1 626.576,127.242 L633.576,149.8099 L638.076,149.8099 A2.5,2.5 0 0 1 640.576,152.3099 L640.576,180.3778 A2.5,2.5 0 0 1 638.076,182.8778 L478.32,182.8778 A2.5,2.5 0 0 1 475.82,180.3778 L475.82,127.242 A2.5,2.5 0 0 1 478.32,124.742" fill="#F1F1F1" style="stroke:#181818;stroke-width:0.5;"/><line style="stroke:#181818;stroke-width:0.5;" x1="475.82" x2="633.576" y1="149.8099" y2="149.8099"/><text fill="#000000" font-family="sans-serif" font-size="14" font-weight="bold" lengthAdjust="spacing" textLength="144.756" x="479.82" y="141.7079">_pushshift_modeling</text><path d="M678.24,124.742 L810.1605,124.742 A3.75,3.75 0 0 1 812.6605,127.242 L819.6605,149.8099 L824.1605,149.8099 A2.5,2.5 0 0 1 826.6605,152.3099 L826.6605,180.3778 A2.5,2.5 0 0 1 824.1605,182.8778 L678.24,182.8778 A2.5,2.5 0 0 1 675.74,180.3778 L675.74,127.242 A2.5,2.5 0 0 1 678.24,124.742" fill="#F1F1F1" style="stroke:#181818;stroke-width:0.5;"/><line style="stroke:#181818;stroke-width:0.5;" x1="675.74" x2="819.6605" y1="149.8099" y2="149.8099"/><text fill="#000000" font-family="sans-serif" font-size="14" font-weight="bold" lengthAdjust="spacing" textLength="130.9205" x="679.74" y="141.7079">_pushshift_queries</text><path d="M808.18,242.872 L936.2225,242.872 A3.75,3.75 0 0 1 938.7225,245.372 L945.7225,267.9399 L950.2225,267.9399 A2.5,2.5 0 0 1 952.7225,270.4399 L952.7225,298.5078 A2.5,2.5 0 0 1 950.2225,301.0078 L808.18,301.0078 A2.5,2.5 0 0 1 805.68,298.5078 L805.68,245.372 A2.5,2.5 0 0 1 808.18,242.872" fill="#F1F1F1" style="stroke:#181818;stroke-width:0.5;"/><line style="stroke:#181818;stroke-width:0.5;" x1="805.68" x2="945.7225" y1="267.9399" y2="267.9399"/><text fill="#000000" font-family="sans-serif" font-size="14" font-weight="bold" lengthAdjust="spacing" textLength="127.0425" x="809.68" y="259.8379">_pushshift_scalers</text><path d="M54.04,124.742 L208.357,124.742 A3.75,3.75 0 0 1 210.857,127.242 L217.857,149.8099 L222.357,149.8099 A2.5,2.5 0 0 1 224.857,152.3099 L224.857,180.3778 A2.5,2.5 0 0 1 222.357,182.8778 L54.04,182.8778 A2.5,2.5 0 0 1 51.54,180.3778 L51.54,127.242 A2.5,2.5 0 0 1 54.04,124.742" fill="#F1F1F1" style="stroke:#181818;stroke-width:0.5;"/><line style="stroke:#181818;stroke-width:0.5;" x1="51.54" x2="217.857" y1="149.8099" y2="149.8099"/><text fill="#000000" font-family="sans-serif" font-size="14" font-weight="bold" lengthAdjust="spacing" textLength="153.317" x="55.54" y="141.7079">_pushshift_subreddits</text><path d="M490.07,6.602 L612.3236,6.602 A3.75,3.75 0 0 1 614.8236,9.102 L621.8236,31.6699 L626.3236,31.6699 A2.5,2.5 0 0 1 628.8236,34.1699 L628.8236,62.2378 A2.5,2.5 0 0 1 626.3236,64.7378 L490.07,64.7378 A2.5,2.5 0 0 1 487.57,62.2378 L487.57,9.102 A2.5,2.5 0 0 1 490.07,6.602" fill="#F1F1F1" style="stroke:#181818;stroke-width:0.5;"/><line style="stroke:#181818;stroke-width:0.5;" x1="487.57" x2="621.8236" y1="31.6699" y2="31.6699"/><text fill="#000000" font-family="sans-serif" font-size="14" font-weight="bold" lengthAdjust="spacing" textLength="121.2536" x="491.57" y="23.5679">pushshift_python</text><!--link _pushshift_community to _pushshift_scalers--><g class="link" data-entity-1="ent0003" data-entity-2="ent0007" data-link-type="dependency" data-source-line="18" id="lnk10"><path codeLine="18" d="M986.46,183.222 C964.45,201.212 940.7452,220.6144 918.7152,238.6244" fill="none" id="_pushshift_community-to-_pushshift_scalers" style="stroke:#181818;stroke-width:1;"/><polygon fill="#181818" points="914.07,242.422,923.5696,239.8224,917.941,239.2573,918.5061,233.6288,914.07,242.422" style="stroke:#181818;stroke-width:1;"/></g><!--link _pushshift_queries to _pushshift_scalers--><g class="link" data-entity-1="ent0006" data-entity-2="ent0007" data-link-type="dependency" data-source-line="19" id="lnk11"><path codeLine="19" d="M782.51,183.222 C802.34,201.212 823.4664,220.3803 843.3164,238.3903" fill="none" id="_pushshift_queries-to-_pushshift_scalers" style="stroke:#181818;stroke-width:1;"/><polygon fill="#181818" points="847.76,242.422,843.7824,233.4121,844.057,239.0622,838.4068,239.3368,847.76,242.422" style="stroke:#181818;stroke-width:1;"/></g><!--link _pushshift_subreddits to _pushshift_api--><g class="link" data-entity-1="ent0008" data-entity-2="ent0002" data-link-type="dependency" data-source-line="20" id="lnk12"><path codeLine="20" d="M121.07,183.222 C110.22,201.212 99.3483,219.2738 88.4883,237.2838" fill="none" id="_pushshift_subreddits-to-_pushshift_api" style="stroke:#181818;stroke-width:1;"/><polygon fill="#181818" points="85.39,242.422,93.4629,236.7803,87.9719,238.1402,86.612,232.6492,85.39,242.422" style="stroke:#181818;stroke-width:1;"/></g><!--link pushshift_python to _pushshift_api--><g class="link" data-entity-1="ent0009" data-entity-2="ent0002" data-link-type="dependency" data-source-line="21" id="lnk13"><path codeLine="21" d="M487.3,37.752 C357.89,41.372 91.43,57.082 34.2,124.742 C6,158.062 26.1564,205.237 45.6064,237.417" fill="none" id="pushshift_python-to-_pushshift_api" style="stroke:#181818;stroke-width:1;"/><polygon fill="#181818" points="48.71,242.552,47.4779,232.7805,46.1237,238.2729,40.6313,236.9187,48.71,242.552" style="stroke:#181818;stroke-width:1;"/></g><!--link pushshift_python to _pushshift_community--><g class="link" data-entity-1="ent0009" data-entity-2="ent0003" data-link-type="dependency" data-source-line="22" id="lnk14"><path codeLine="22" d="M629.27,54.502 C710.64,74.912 838.2202,106.9124 926.4202,129.0324" fill="none" id="pushshift_python-to-_pushshift_community" style="stroke:#181818;stroke-width:1;"/><polygon fill="#181818" points="932.24,130.492,924.4834,124.4228,927.3902,129.2757,922.5373,132.1825,932.24,130.492" style="stroke:#181818;stroke-width:1;"/></g><!--link pushshift_python to _pushshift_file_handler--><g class="link" data-entity-1="ent0009" data-entity-2="ent0004" data-link-type="dependency" data-source-line="23" id="lnk15"><path codeLine="23" d="M507.05,65.232 C474.81,83.232 438.5886,103.4568 406.3886,121.4368" fill="none" id="pushshift_python-to-_pushshift_file_handler" style="stroke:#181818;stroke-width:1;"/><polygon fill="#181818" points="401.15,124.362,410.9581,123.4666,405.5155,121.9243,407.0578,116.4818,401.15,124.362" style="stroke:#181818;stroke-width:1;"/></g><!--link pushshift_python to _pushshift_modeling--><g class="link" data-entity-1="ent0009" data-entity-2="ent0005" data-link-type="dependency" data-source-line="24" id="lnk16"><path codeLine="24" d="M558.2,65.082 C558.2,83.082 558.2,100.272 558.2,118.292" fill="none" id="pushshift_python-to-_pushshift_modeling" style="stroke:#181818;stroke-width:1;"/><polygon fill="#181818" points="558.2,124.292,562.2,115.292,558.2,119.292,554.2,115.292,558.2,124.292" style="stroke:#181818;stroke-width:1;"/></g><!--link pushshift_python to _pushshift_queries--><g class="link" data-entity-1="ent0009" data-entity-2="ent0006" data-link-type="dependency" data-source-line="25" id="lnk17"><path codeLine="25" d="M605.41,65.082 C635.32,83.082 668.7193,103.1779 698.6593,121.1979" fill="none" id="pushshift_python-to-_pushshift_queries" style="stroke:#181818;stroke-width:1;"/><polygon fill="#181818" points="703.8,124.292,698.1516,116.2238,699.5161,121.7136,694.0262,123.0781,703.8,124.292" style="stroke:#181818;stroke-width:1;"/></g><!--link pushshift_python to _pushshift_scalers--><g class="link" data-entity-1="ent0009" data-entity-2="ent0007" data-link-type="dependency" data-source-line="26" id="lnk18"><path codeLine="26" d="M629.01,39.372 C694.07,45.732 788.56,65.442 844.2,124.742 C874.29,156.812 879.8675,204.0023 880.2075,236.6223" fill="none" id="pushshift_python-to-_pushshift_scalers" style="stroke:#181818;stroke-width:1;"/><polygon fill="#181818" points="880.27,242.622,884.176,233.5808,880.2179,237.6223,876.1764,233.6642,880.27,242.622" style="stroke:#181818;stroke-width:1;"/></g><!--link pushshift_python to _pushshift_subreddits--><g class="link" data-entity-1="ent0009" data-entity-2="ent0008" data-link-type="dependency" data-source-line="27" id="lnk19"><path codeLine="27" d="M487.42,56.242 C415.19,76.222 308.723,105.653 231.073,127.123" fill="none" id="pushshift_python-to-_pushshift_subreddits" style="stroke:#181818;stroke-width:1;"/><polygon fill="#181818" points="225.29,128.722,235.0305,130.1788,230.1092,127.3895,232.8985,122.4682,225.29,128.722" style="stroke:#181818;stroke-width:1;"/></g><?plantuml-src dP9R3eCW44N_MGNntorq4rs0cSeefF8eZm_JTEyrHgaYXAI_TyuXbyauz5I1H6UWnpiQiE2rfKeh94lqX15fqvdWkEDYy1qOqL1mz1pHD_bayLvB6PJmSoh5GL4Tn8GT1yKcjAbzd1KVa9hX9DIOodjU55y1hK2NUbjSr5mFIvsBjiLbBJmiCYRyrOoJi_mZpEovLgkNXgkINNZRtZBzIEQdTV9GCO6Ngo2NJdymiNULF1v55TwFe0fkkwXo-tAgNDpO5m00?></g></svg>