<?xml version="1.0" encoding="UTF-8" standalone="no"?>
<!DOCTYPE svg PUBLIC "-//W3C//DTD SVG 1.1//EN"
 "http://www.w3.org/Graphics/SVG/1.1/DTD/svg11.dtd">
<!-- Generated by graphviz version 13.1.2 (20250808.2320)
 -->
<!-- Title: G Pages: 1 -->
<svg width="791pt" height="230pt"
 viewBox="0.00 0.00 791.00 230.00" xmlns="http://www.w3.org/2000/svg" xmlns:xlink="http://www.w3.org/1999/xlink">
<g id="graph0" class="graph" transform="scale(1 1) rotate(0) translate(4 226.01)">
<title>G</title><style>.edge>path:hover{stroke-width:8}</style>
<polygon fill="white" stroke="none" points="-4,4 -4,-226.01 787.19,-226.01 787.19,4 -4,4"/>
<!-- _pushshift_api -->
<g id="node1" class="node">
<title>_pushshift_api</title><style>.edge>path:hover{stroke-width:8}</style>
<ellipse fill="#c24747" stroke="black" cx="111.84" cy="-204.01" rx="46.04" ry="18"/>
<text xml:space="preserve" text-anchor="middle" x="111.84" y="-199.76" font-family="Helvetica,sans-Serif" font-size="10.00" fill="#ffffff">_pushshift_api</text>
</g>
<!-- _pushshift_subreddits -->
<g id="node7" class="node">
<title>_pushshift_subreddits</title><style>.edge>path:hover{stroke-width:8}</style>
<ellipse fill="#7f4cb3" stroke="black" cx="64.84" cy="-132.01" rx="64.84" ry="18"/>
<text xml:space="preserve" text-anchor="middle" x="64.84" y="-127.76" font-family="Helvetica,sans-Serif" font-size="10.00" fill="#ffffff">_pushshift_subreddits</text>
</g>
<!-- _pushshift_api&#45;&gt;_pushshift_subreddits -->
<g id="edge1" class="edge">
<title>_pushshift_api&#45;&gt;_pushshift_subreddits</title><style>.edge>path:hover{stroke-width:8}</style>
<path fill="none" stroke="black" d="M100.7,-186.42C95.28,-178.35 88.63,-168.44 82.54,-159.37"/>
<polygon fill="#c24747" stroke="black" points="85.55,-157.58 77.07,-151.22 79.74,-161.48 85.55,-157.58"/>
</g>
<!-- pushshift_python_py -->
<g id="node8" class="node">
<title>pushshift_python_py</title><style>.edge>path:hover{stroke-width:8}</style>
<ellipse fill="#7e446f" stroke="black" cx="479.84" cy="-20.51" rx="65.94" ry="20.51"/>
<text xml:space="preserve" text-anchor="middle" x="479.84" y="-21.51" font-family="Helvetica,sans-Serif" font-size="10.00" fill="#ffffff">pushshift_python.</text>
<text xml:space="preserve" text-anchor="middle" x="479.84" y="-11.01" font-family="Helvetica,sans-Serif" font-size="10.00" fill="#ffffff">py</text>
</g>
<!-- _pushshift_api&#45;&gt;pushshift_python_py -->
<g id="edge2" class="edge">
<title>_pushshift_api&#45;&gt;pushshift_python_py</title><style>.edge>path:hover{stroke-width:8}</style>
<path fill="none" stroke="black" d="M119.07,-185.92C128.86,-165.09 148.43,-130.62 176.84,-114.01 235.38,-79.78 444.78,-136.05 479.84,-78.01"/>
</g>
<!-- _pushshift_community -->
<g id="node2" class="node">
<title>_pushshift_community</title><style>.edge>path:hover{stroke-width:8}</style>
<ellipse fill="#b3994c" stroke="black" cx="252.84" cy="-132.01" rx="66.59" ry="18"/>
<text xml:space="preserve" text-anchor="middle" x="252.84" y="-127.76" font-family="Helvetica,sans-Serif" font-size="10.00" fill="#000000">_pushshift_community</text>
</g>
<!-- _pushshift_community&#45;&gt;pushshift_python_py -->
<g id="edge3" class="edge">
<title>_pushshift_community&#45;&gt;pushshift_python_py</title><style>.edge>path:hover{stroke-width:8}</style>
<path fill="none" stroke="black" d="M302.9,-119.79C369.39,-104.81 478.69,-79.94 479.84,-78.01"/>
</g>
<!-- _pushshift_file_handler -->
<g id="node3" class="node">
<title>_pushshift_file_handler</title><style>.edge>path:hover{stroke-width:8}</style>
<ellipse fill="#85b653" stroke="black" cx="574.84" cy="-132.01" rx="67.46" ry="18"/>
<text xml:space="preserve" text-anchor="middle" x="574.84" y="-127.76" font-family="Helvetica,sans-Serif" font-size="10.00" fill="#000000">_pushshift_file_handler</text>
</g>
<!-- _pushshift_file_handler&#45;&gt;pushshift_python_py -->
<g id="edge4" class="edge">
<title>_pushshift_file_handler&#45;&gt;pushshift_python_py</title><style>.edge>path:hover{stroke-width:8}</style>
<path fill="none" stroke="black" d="M520.87,-120.9C492.89,-112.93 466.99,-99.48 479.84,-78.01"/>
</g>
<!-- _pushshift_modeling -->
<g id="node4" class="node">
<title>_pushshift_modeling</title><style>.edge>path:hover{stroke-width:8}</style>
<ellipse fill="#53b66c" stroke="black" cx="721.84" cy="-132.01" rx="61.34" ry="18"/>
<text xml:space="preserve" text-anchor="middle" x="721.84" y="-127.76" font-family="Helvetica,sans-Serif" font-size="10.00" fill="#000000">_pushshift_modeling</text>
</g>
<!-- _pushshift_modeling&#45;&gt;pushshift_python_py -->
<g id="edge5" class="edge">
<title>_pushshift_modeling&#45;&gt;pushshift_python_py</title><style>.edge>path:hover{stroke-width:8}</style>
<path fill="none" stroke="black" d="M675.67,-119.76C667.41,-117.81 658.88,-115.82 650.84,-114.01 612.96,-105.49 459.89,-111.33 479.84,-78.01"/>
</g>
<!-- _pushshift_queries -->
<g id="node5" class="node">
<title>_pushshift_queries</title><style>.edge>path:hover{stroke-width:8}</style>
<ellipse fill="#4cb3b3" stroke="black" cx="394.84" cy="-132.01" rx="56.97" ry="18"/>
<text xml:space="preserve" text-anchor="middle" x="394.84" y="-127.76" font-family="Helvetica,sans-Serif" font-size="10.00" fill="#000000">_pushshift_queries</text>
</g>
<!-- _pushshift_queries&#45;&gt;pushshift_python_py -->
<g id="edge6" class="edge">
<title>_pushshift_queries&#45;&gt;pushshift_python_py</title><style>.edge>path:hover{stroke-width:8}</style>
<path fill="none" stroke="black" d="M430.93,-117.82C448.8,-109.32 468.85,-96.36 479.84,-78.01"/>
</g>
<!-- _pushshift_scalers -->
<g id="node6" class="node">
<title>_pushshift_scalers</title><style>.edge>path:hover{stroke-width:8}</style>
<ellipse fill="#3b60ce" stroke="black" cx="394.84" cy="-204.01" rx="57.41" ry="18"/>
<text xml:space="preserve" text-anchor="middle" x="394.84" y="-199.76" font-family="Helvetica,sans-Serif" font-size="10.00" fill="#ffffff">_pushshift_scalers</text>
</g>
<!-- _pushshift_scalers&#45;&gt;_pushshift_community -->
<g id="edge7" class="edge">
<title>_pushshift_scalers&#45;&gt;_pushshift_community</title><style>.edge>path:hover{stroke-width:8}</style>
<path fill="none" stroke="black" d="M365.07,-188.34C344.34,-178.12 316.43,-164.36 293.62,-153.12"/>
<polygon fill="#3b60ce" stroke="black" points="295.43,-150.1 284.91,-148.82 292.33,-156.38 295.43,-150.1"/>
</g>
<!-- _pushshift_scalers&#45;&gt;_pushshift_queries -->
<g id="edge8" class="edge">
<title>_pushshift_scalers&#45;&gt;_pushshift_queries</title><style>.edge>path:hover{stroke-width:8}</style>
<path fill="none" stroke="black" d="M394.84,-185.71C394.84,-178.42 394.84,-169.74 394.84,-161.55"/>
<polygon fill="#3b60ce" stroke="black" points="398.34,-161.63 394.84,-151.63 391.34,-161.63 398.34,-161.63"/>
</g>
<!-- _pushshift_scalers&#45;&gt;pushshift_python_py -->
<g id="edge9" class="edge">
<title>_pushshift_scalers&#45;&gt;pushshift_python_py</title><style>.edge>path:hover{stroke-width:8}</style>
<path fill="none" stroke="black" d="M421.14,-187.68C434.86,-178.41 450.83,-165.42 460.84,-150.01 478.87,-122.26 462.84,-106.41 479.84,-78.01"/>
</g>
<!-- _pushshift_subreddits&#45;&gt;pushshift_python_py -->
<g id="edge10" class="edge">
<title>_pushshift_subreddits&#45;&gt;pushshift_python_py</title><style>.edge>path:hover{stroke-width:8}</style>
<path fill="none" stroke="black" d="M113.15,-119.77C123.26,-117.66 133.87,-115.61 143.84,-114.01 180.91,-108.05 460.56,-110.23 479.84,-78.01"/>
<path fill="none" stroke="black" d="M479.84,-77.01C484.15,-69.82 485.53,-61.1 485.47,-52.73"/>
<polygon fill="#7f4cb3" stroke="black" points="488.97,-52.53 484.71,-42.83 481.99,-53.07 488.97,-52.53"/>
</g>
</g>
</svg>
