<?plantuml 1.2026.2?><svg xmlns="http://www.w3.org/2000/svg" xmlns:xlink="http://www.w3.org/1999/xlink" contentStyleType="text/css" data-diagram-type="DESCRIPTION" height="650px" preserveAspectRatio="none" style="width:1510px;height:650px;background:#FFFFFF;" version="1.1" viewBox="0 0 1510 650" width="1510px" zoomAndPan="magnify"><title>pushshift_python Repository Architecture</title><defs/><g><g class="title" data-source-line="2"><text fill="#000000" font-family="Monospace" font-size="14" font-weight="bold" lengthAdjust="spacing" textLength="289.3719" x="594.314" y="24.9659">pushshift_python&#160;Repository&#160;Architecture</text></g><!--entity pushshift_api--><g class="entity" data-qualified-name="pushshift_api" data-source-line="6" id="ent0002"><path d="M1023,76.0679 C1023,66.0679 1100.1857,66.0679 1100.1857,66.0679 C1100.1857,66.0679 1177.3715,66.0679 1177.3715,76.0679 L1177.3715,104.1358 C1177.3715,114.1358 1100.1857,114.1358 1100.1857,114.1358 C1100.1857,114.1358 1023,114.1358 1023,104.1358 L1023,76.0679" fill="#FCE7F3" style="stroke:#181818;stroke-width:0.5;"/><path d="M1023,76.0679 C1023,86.0679 1100.1857,86.0679 1100.1857,86.0679 C1100.1857,86.0679 1177.3715,86.0679 1177.3715,76.0679" fill="none" style="stroke:#181818;stroke-width:0.5;"/><text fill="#000000" font-family="Monospace" font-size="14" lengthAdjust="spacing" textLength="134.3715" x="1033" y="105.0339">Pushshift&#160;search&#160;API</text></g><!--entity reddit_api--><g class="entity" data-qualified-name="reddit_api" data-source-line="7" id="ent0003"><path d="M220,324.0679 C220,314.0679 287.0848,314.0679 287.0848,314.0679 C287.0848,314.0679 354.1696,314.0679 354.1696,324.0679 L354.1696,352.1358 C354.1696,362.1358 287.0848,362.1358 287.0848,362.1358 C287.0848,362.1358 220,362.1358 220,352.1358 L220,324.0679" fill="#FCE7F3" style="stroke:#181818;stroke-width:0.5;"/><path d="M220,324.0679 C220,334.0679 287.0848,334.0679 287.0848,334.0679 C287.0848,334.0679 354.1696,334.0679 354.1696,324.0679" fill="none" style="stroke:#181818;stroke-width:0.5;"/><text fill="#000000" font-family="Monospace" font-size="14" lengthAdjust="spacing" textLength="114.1696" x="230" y="353.0339">Reddit&#160;OAuth&#160;API</text></g><!--entity archives--><g class="entity" data-qualified-name="archives" data-source-line="8" id="ent0004"><path d="M1341,52.0679 L1382,52.0679 A3.75,3.75 0 0 1 1384.5,54.5679 L1391.5,73.0679 L1464.9516,73.0679 A2.5,2.5 0 0 1 1467.4516,75.5679 L1467.4516,125.7038 A2.5,2.5 0 0 1 1464.9516,128.2038 L1341,128.2038 A2.5,2.5 0 0 1 1338.5,125.7038 L1338.5,54.5679 A2.5,2.5 0 0 1 1341,52.0679" fill="#FCE7F3" style="stroke:#181818;stroke-width:0.5;"/><line style="stroke:#181818;stroke-width:0.5;" x1="1338.5" x2="1391.5" y1="73.0679" y2="73.0679"/><text fill="#000000" font-family="Monospace" font-size="14" lengthAdjust="spacing" textLength="98.9516" x="1348.5" y="95.0339">Local&#160;Pushshift</text><text fill="#000000" font-family="Monospace" font-size="14" lengthAdjust="spacing" textLength="80.0657" x="1348.5" y="114.1018">.zst&#160;archives</text></g><!--entity datasets--><g class="entity" data-qualified-name="datasets" data-source-line="9" id="ent0005"><path d="M1006.5,300.0679 L1047.5,300.0679 A3.75,3.75 0 0 1 1050,302.5679 L1057,321.0679 L1093.3938,321.0679 A2.5,2.5 0 0 1 1095.8938,323.5679 L1095.8938,373.7038 A2.5,2.5 0 0 1 1093.3938,376.2038 L1006.5,376.2038 A2.5,2.5 0 0 1 1004,373.7038 L1004,302.5679 A2.5,2.5 0 0 1 1006.5,300.0679" fill="#FCE7F3" style="stroke:#181818;stroke-width:0.5;"/><line style="stroke:#181818;stroke-width:0.5;" x1="1004" x2="1057" y1="321.0679" y2="321.0679"/><text fill="#000000" font-family="Monospace" font-size="14" lengthAdjust="spacing" textLength="61.8938" x="1014" y="343.0339">CSV&#160;/&#160;PKL</text><text fill="#000000" font-family="Monospace" font-size="14" lengthAdjust="spacing" textLength="55.7338" x="1014" y="362.1018">datasets</text></g><!--entity facade--><g class="entity" data-qualified-name="facade" data-source-line="11" id="ent0006"><rect fill="#DBEAFE" height="58.1358" rx="2.5" ry="2.5" style="stroke:#181818;stroke-width:0.5;" width="155.4635" x="579.5" y="309.0679"/><text fill="#000000" font-family="Monospace" font-size="14" lengthAdjust="spacing" textLength="133.7555" x="589.5" y="334.0339">pushshift_python.py</text><text fill="#000000" font-family="Monospace" font-size="14" lengthAdjust="spacing" textLength="135.4635" x="589.5" y="353.1018">public&#160;import&#160;facade</text></g><!--entity query_base--><g class="entity" data-qualified-name="query_base" data-source-line="12" id="ent0007"><rect fill="#FEF3C7" height="77.2038" rx="2.5" ry="2.5" style="stroke:#181818;stroke-width:0.5;" width="174.1254" x="1285" y="433.0679"/><text fill="#000000" font-family="Monospace" font-size="14" lengthAdjust="spacing" textLength="38.0798" x="1295" y="458.0339">query</text><text fill="#000000" font-family="Monospace" font-size="14" lengthAdjust="spacing" textLength="154.1254" x="1295" y="477.1018">shared&#160;query&#160;metadata</text><text fill="#000000" font-family="Monospace" font-size="14" lengthAdjust="spacing" textLength="152.5294" x="1295" y="496.1697">and&#160;post&#160;normalization</text></g><!--entity file_query--><g class="entity" data-qualified-name="file_query" data-source-line="13" id="ent0008"><rect fill="#FEF3C7" height="58.1358" rx="2.5" ry="2.5" style="stroke:#181818;stroke-width:0.5;" width="151.9075" x="1327" y="185.0679"/><text fill="#000000" font-family="Monospace" font-size="14" lengthAdjust="spacing" textLength="131.9075" x="1337" y="210.0339">pushshift_file_query</text><text fill="#000000" font-family="Monospace" font-size="14" lengthAdjust="spacing" textLength="131.5855" x="1337" y="229.1018">file-backed&#160;collector</text></g><!--entity web_query--><g class="entity" data-qualified-name="web_query" data-source-line="14" id="ent0009"><rect fill="#FEF3C7" height="58.1358" rx="2.5" ry="2.5" style="stroke:#181818;stroke-width:0.5;" width="159.4814" x="1020.5" y="185.0679"/><text fill="#000000" font-family="Monospace" font-size="14" lengthAdjust="spacing" textLength="139.4814" x="1030.5" y="210.0339">pushshift_web_query</text><text fill="#000000" font-family="Monospace" font-size="14" lengthAdjust="spacing" textLength="94.3876" x="1030.5" y="229.1018">HTTP&#160;collector</text></g><!--entity subreddit_stack--><g class="entity" data-qualified-name="subreddit_stack" data-source-line="15" id="ent0010"><rect fill="#FEF3C7" height="77.2038" rx="2.5" ry="2.5" style="stroke:#181818;stroke-width:0.5;" width="200.7113" x="276.5" y="433.0679"/><text fill="#000000" font-family="Monospace" font-size="14" lengthAdjust="spacing" textLength="149.8834" x="286.5" y="458.0339">api_agent&#160;+&#160;subreddits</text><text fill="#000000" font-family="Monospace" font-size="14" lengthAdjust="spacing" textLength="180.7113" x="286.5" y="477.1018">subreddit&#160;inventory&#160;refresh</text><text fill="#000000" font-family="Monospace" font-size="14" lengthAdjust="spacing" textLength="80.4017" x="286.5" y="496.1697">and&#160;filtering</text></g><!--entity community--><g class="entity" data-qualified-name="community" data-source-line="16" id="ent0011"><rect fill="#DCFCE7" height="77.2038" rx="2.5" ry="2.5" style="stroke:#181818;stroke-width:0.5;" width="167.6994" x="790" y="433.0679"/><text fill="#000000" font-family="Monospace" font-size="14" lengthAdjust="spacing" textLength="74.4797" x="800" y="458.0339">community</text><text fill="#000000" font-family="Monospace" font-size="14" lengthAdjust="spacing" textLength="147.6994" x="800" y="477.1018">author,&#160;reference,&#160;and</text><text fill="#000000" font-family="Monospace" font-size="14" lengthAdjust="spacing" textLength="131.4595" x="800" y="496.1697">feature&#160;engineering</text></g><!--entity modeling--><g class="entity" data-qualified-name="modeling" data-source-line="17" id="ent0012"><rect fill="#DCFCE7" height="77.2038" rx="2.5" ry="2.5" style="stroke:#181818;stroke-width:0.5;" width="179.4314" x="576.5" y="567.0679"/><text fill="#000000" font-family="Monospace" font-size="14" lengthAdjust="spacing" textLength="62.5518" x="586.5" y="592.0339">modeling</text><text fill="#000000" font-family="Monospace" font-size="14" lengthAdjust="spacing" textLength="107.1976" x="586.5" y="611.1018">sklearn&#160;training,</text><text fill="#000000" font-family="Monospace" font-size="14" lengthAdjust="spacing" textLength="159.4314" x="586.5" y="630.1697">resampling,&#160;and&#160;metrics</text></g><!--entity helpers--><g class="entity" data-qualified-name="helpers" data-source-line="18" id="ent0013"><rect fill="#DCFCE7" height="77.2038" rx="2.5" ry="2.5" style="stroke:#181818;stroke-width:0.5;" width="185.6053" x="917" y="567.0679"/><text fill="#000000" font-family="Monospace" font-size="14" lengthAdjust="spacing" textLength="137.7735" x="927" y="592.0339">file_handler&#160;+&#160;scalers</text><text fill="#000000" font-family="Monospace" font-size="14" lengthAdjust="spacing" textLength="114.5476" x="927" y="611.1018">csv&#160;assembly&#160;and</text><text fill="#000000" font-family="Monospace" font-size="14" lengthAdjust="spacing" textLength="165.6053" x="927" y="630.1697">feature&#160;encoding&#160;helpers</text></g><!--entity examples--><g class="entity" data-qualified-name="examples" data-source-line="20" id="ent0014"><rect fill="#E0F2FE" height="58.1358" rx="2.5" ry="2.5" style="stroke:#181818;stroke-width:0.5;" width="229.3272" x="542.5" y="185.0679"/><text fill="#000000" font-family="Monospace" font-size="14" lengthAdjust="spacing" textLength="209.3272" x="552.5" y="210.0339">Examples/documentation.ipynb</text><text fill="#000000" font-family="Monospace" font-size="14" lengthAdjust="spacing" textLength="112.6016" x="552.5" y="229.1018">interactive&#160;usage</text></g><!--entity hpc--><g class="entity" data-qualified-name="hpc" data-source-line="21" id="ent0015"><rect fill="#E0F2FE" height="58.1358" rx="2.5" ry="2.5" style="stroke:#181818;stroke-width:0.5;" width="212.0513" x="274" y="185.0679"/><text fill="#000000" font-family="Monospace" font-size="14" lengthAdjust="spacing" textLength="192.0513" x="284" y="210.0339">Great_Lakes_HPC/pys&#160;+&#160;sbats</text><text fill="#000000" font-family="Monospace" font-size="14" lengthAdjust="spacing" textLength="75.4597" x="284" y="229.1018">cluster&#160;jobs</text></g><!--entity resources--><g class="entity" data-qualified-name="resources" data-source-line="22" id="ent0016"><rect fill="#E0F2FE" height="58.1358" rx="2.5" ry="2.5" style="stroke:#181818;stroke-width:0.5;" width="195.7833" x="6" y="309.0679"/><text fill="#000000" font-family="Monospace" font-size="14" lengthAdjust="spacing" textLength="116.9136" x="16" y="334.0339">Resources/Scripts</text><text fill="#000000" font-family="Monospace" font-size="14" lengthAdjust="spacing" textLength="175.7833" x="16" y="353.1018">quarter/week/year&#160;helpers</text></g><!--entity research--><g class="entity" data-qualified-name="research" data-source-line="23" id="ent0017"><rect fill="#E0F2FE" height="58.1358" rx="2.5" ry="2.5" style="stroke:#181818;stroke-width:0.5;" width="145.7055" x="790" y="185.0679"/><text fill="#000000" font-family="Monospace" font-size="14" lengthAdjust="spacing" textLength="125.7055" x="800" y="210.0339">ICWSM/&#160;and&#160;TADA/</text><text fill="#000000" font-family="Monospace" font-size="14" lengthAdjust="spacing" textLength="114.3796" x="800" y="229.1018">research&#160;artifacts</text></g><!--entity tests--><g class="entity" data-qualified-name="tests" data-source-line="24" id="ent0018"><rect fill="#E0F2FE" height="58.1358" rx="2.5" ry="2.5" style="stroke:#181818;stroke-width:0.5;" width="193.5153" x="378" y="61.0679"/><text fill="#000000" font-family="Monospace" font-size="14" lengthAdjust="spacing" textLength="31.4159" x="388" y="86.0339">tests</text><text fill="#000000" font-family="Monospace" font-size="14" lengthAdjust="spacing" textLength="173.5153" x="388" y="105.1018">public&#160;API&#160;and&#160;HPC&#160;checks</text></g><g class="link" data-entity-1="ent0006" data-entity-2="ent0007" data-link-type="dependency" id="lnk19"><polygon fill="#181818" points="1284.7512,436.9638,1277.2976,430.5261,1279.966,435.5141,1274.9781,438.1825,1284.7512,436.9638" style="stroke:#181818;stroke-width:1;"/><path d="M734.6263,345.7224 C852.1618,356.9657 1081.6533,383.4963 1271,433.0679 C1275.5236,434.2522 1274.3847,433.8232 1279.009,435.2241" fill="none" style="stroke:#181818;stroke-width:1;"/><text fill="#000000" font-family="Monospace" font-size="13" lengthAdjust="spacing" textLength="135.3431" x="1191" y="409.9649">re-exports&#160;query&#160;layer</text></g><g class="link" data-entity-1="ent0006" data-entity-2="ent0011" data-link-type="dependency" id="lnk20"><polygon fill="#181818" points="811.7268,432.8309,806.1028,424.7457,807.4507,430.2397,801.9568,431.5875,811.7268,432.8309" style="stroke:#181818;stroke-width:1;"/><path d="M703.2858,367.1167 C734.9021,386.2759 772.0321,408.7763 806.5955,429.7214" fill="none" style="stroke:#181818;stroke-width:1;"/><text fill="#000000" font-family="Monospace" font-size="13" lengthAdjust="spacing" textLength="119.7431" x="781" y="409.9649">re-exports&#160;analytics</text></g><g class="link" data-entity-1="ent0006" data-entity-2="ent0012" data-link-type="dependency" id="lnk21"><polygon fill="#181818" points="659.6281,566.9824,662.2339,557.4845,658.8786,562.0389,654.3243,558.6836,659.6281,566.9824" style="stroke:#181818;stroke-width:1;"/><path d="M654.7611,367.2442 C652.4303,401.168 649.5621,459.8514 653,510.0679 C654.2895,528.9031 656.1091,543.7706 658.7287,561.0502" fill="none" style="stroke:#181818;stroke-width:1;"/><text fill="#000000" font-family="Monospace" font-size="13" lengthAdjust="spacing" textLength="124.7091" x="655" y="476.9649">re-exports&#160;modeling</text></g><g class="link" data-entity-1="ent0006" data-entity-2="ent0010" data-link-type="dependency" id="lnk22"><polygon fill="#181818" points="423.0188,432.9431,432.4866,430.2298,426.8516,429.7322,427.3492,424.0973,423.0188,432.9431" style="stroke:#181818;stroke-width:1;"/><path d="M579.393,353.0593 C543.6533,361.5857 501.5988,374.6751 467,394.0679 C454.9253,400.8359 454.4441,405.9835 444,415.0679 C437.2761,420.9165 434.6921,423.1642 427.6182,429.0901" fill="none" style="stroke:#181818;stroke-width:1;"/><text fill="#000000" font-family="Monospace" font-size="13" lengthAdjust="spacing" textLength="159.0031" x="469" y="409.9649">re-exports&#160;subreddit&#160;tools</text></g><g class="link" data-entity-1="ent0006" data-entity-2="ent0013" data-link-type="dependency" id="lnk23"><polygon fill="#181818" points="1009.9912,566.9388,1013.931,557.9123,1009.9578,561.9389,1005.9312,557.9657,1009.9912,566.9388" style="stroke:#181818;stroke-width:1;"/><path d="M734.5216,340.8266 C823.5938,344.627 961.895,356.5802 996,394.0679 C1007.3377,406.5302 1009.5698,503.8227 1009.9511,560.9389" fill="none" style="stroke:#181818;stroke-width:1;"/><text fill="#000000" font-family="Monospace" font-size="13" lengthAdjust="spacing" textLength="111.0201" x="1012" y="476.9649">re-exports&#160;utilities</text></g><g class="link" data-entity-1="ent0008" data-entity-2="ent0007" data-link-type="dependency" id="lnk24"><polygon fill="#181818" points="1397.4387,432.7525,1405.4326,426.9995,1399.961,428.4353,1398.5251,422.9637,1397.4387,432.7525" style="stroke:#181818;stroke-width:1;"/><path d="M1412.3145,243.0835 C1421.7193,275.508 1433.3585,330.3132 1422,376.0679 C1417.0808,395.8837 1410.1842,410.9374 1400.4654,427.5719" fill="none" style="stroke:#181818;stroke-width:1;"/><text fill="#000000" font-family="Monospace" font-size="13" lengthAdjust="spacing" textLength="48.49" x="1429" y="343.4649">extends</text></g><g class="link" data-entity-1="ent0009" data-entity-2="ent0007" data-link-type="dependency" id="lnk25"><polygon fill="#181818" points="1369.5567,432.5988,1372.9443,423.3509,1369.2215,427.6101,1364.9623,423.8872,1369.5567,432.5988" style="stroke:#181818;stroke-width:1;"/><path d="M1179.6132,224.7485 C1248.967,233.9589 1340.2514,248.2709 1352,261.0679 C1357.7141,267.2919 1365.2119,367.9414 1369.1544,426.6123" fill="none" style="stroke:#181818;stroke-width:1;"/><text fill="#000000" font-family="Monospace" font-size="13" lengthAdjust="spacing" textLength="48.49" x="1368" y="343.4649">extends</text></g><g class="link" data-entity-1="ent0004" data-entity-2="ent0008" data-link-type="dependency" id="lnk26"><polygon fill="#181818" points="1403,184.935,1407,175.935,1403,179.935,1399,175.935,1403,184.935" style="stroke:#181818;stroke-width:1;"/><path d="M1403,128.3348 C1403,146.5541 1403,162.1199 1403,178.935" fill="none" style="stroke:#181818;stroke-width:1;"/><text fill="#000000" font-family="Monospace" font-size="13" lengthAdjust="spacing" textLength="96.5511" x="1405" y="161.9649">monthly&#160;dumps</text></g><g class="link" data-entity-1="ent0002" data-entity-2="ent0009" data-link-type="dependency" id="lnk27"><polygon fill="#181818" points="1100,184.7732,1104,175.7732,1100,179.7732,1096,175.7732,1100,184.7732" style="stroke:#181818;stroke-width:1;"/><path d="M1100,114.3023 C1100,134.3515 1100,157.3743 1100,178.7732" fill="none" style="stroke:#181818;stroke-width:1;"/><text fill="#000000" font-family="Monospace" font-size="13" lengthAdjust="spacing" textLength="176.6572" x="1102" y="161.9649">comment/submission&#160;search</text></g><g class="link" data-entity-1="ent0003" data-entity-2="ent0010" data-link-type="dependency" id="lnk28"><polygon fill="#181818" points="302.2721,433.0271,298.508,423.926,298.6494,429.5811,292.9943,429.7224,302.2721,433.0271" style="stroke:#181818;stroke-width:1;"/><path d="M281.7929,362.1685 C279.4741,378.056 278.995,399.0887 288,415.0679 C291.7548,421.7308 292.3258,423.5659 297.9248,428.8918" fill="none" style="stroke:#181818;stroke-width:1;"/><text fill="#000000" font-family="Monospace" font-size="13" lengthAdjust="spacing" textLength="152.8022" x="290" y="409.9649">OAuth&#160;+&#160;subreddit&#160;listing</text></g><g class="link" data-entity-1="ent0008" data-entity-2="ent0005" data-link-type="dependency" id="lnk29"><polygon fill="#181818" points="1096.0633,321.148,1105.8762,321.9887,1100.789,319.5148,1103.263,314.4276,1096.0633,321.148" style="stroke:#181818;stroke-width:1;"/><path d="M1326.8389,241.3899 C1256.6101,265.6616 1160.3154,298.9419 1101.7342,319.1881" fill="none" style="stroke:#181818;stroke-width:1;"/><text fill="#000000" font-family="Monospace" font-size="13" lengthAdjust="spacing" textLength="135.5771" x="1271" y="276.9649">collect&#160;csv/pkl&#160;outputs</text></g><g class="link" data-entity-1="ent0009" data-entity-2="ent0005" data-link-type="dependency" id="lnk30"><polygon fill="#181818" points="1044.7231,299.8635,1048.4863,290.762,1044.5923,294.8652,1040.4891,290.9712,1044.7231,299.8635" style="stroke:#181818;stroke-width:1;"/><path d="M1063.0164,243.14 C1058.1546,248.5336 1053.8701,254.5547 1051,261.0679 C1045.7321,273.0223 1044.2322,281.0987 1044.5662,293.8655" fill="none" style="stroke:#181818;stroke-width:1;"/><text fill="#000000" font-family="Monospace" font-size="13" lengthAdjust="spacing" textLength="135.5771" x="1053" y="276.9649">collect&#160;csv/pkl&#160;outputs</text></g><g class="link" data-entity-1="ent0013" data-entity-2="ent0005" data-link-type="dependency" id="lnk31"><polygon fill="#181818" points="1091.6148,376.1988,1094.8186,385.512,1095.0213,379.8587,1100.6746,380.0614,1091.6148,376.1988" style="stroke:#181818;stroke-width:1;"/><path d="M1078.1294,566.9266 C1098.2972,552.0634 1117.9305,532.9936 1129,510.0679 C1143.8801,479.25 1140.7172,465.2217 1129,433.0679 C1121.2633,411.8372 1110.4771,396.464 1095.7027,380.5907" fill="none" style="stroke:#181818;stroke-width:1;"/><text fill="#000000" font-family="Monospace" font-size="13" lengthAdjust="spacing" textLength="102.7131" x="1142" y="476.9649">combine&#160;exports</text></g><g class="link" data-entity-1="ent0005" data-entity-2="ent0011" data-link-type="dependency" id="lnk32"><polygon fill="#181818" points="924.2579,433.0173,933.8618,430.8348,928.2633,430.0246,929.0735,424.4261,924.2579,433.0173" style="stroke:#181818;stroke-width:1;"/><path d="M1003.7581,373.618 C979.3147,391.881 954.0823,410.7337 929.0644,429.426" fill="none" style="stroke:#181818;stroke-width:1;"/><text fill="#000000" font-family="Monospace" font-size="13" lengthAdjust="spacing" textLength="145.2751" x="975" y="409.9649">load&#160;community&#160;frames</text></g><g class="link" data-entity-1="ent0011" data-entity-2="ent0013" data-link-type="dependency" id="lnk33"><polygon fill="#181818" points="916.8587,589.7085,909.7708,582.8702,912.1605,587.9975,907.0332,590.3873,916.8587,589.7085" style="stroke:#181818;stroke-width:1;"/><path d="M855.5588,510.4127 C851.8619,523.586 851.1772,537.8582 859,549.0679 C872.7461,568.7655 888.6597,579.439 911.2209,587.6553" fill="none" style="stroke:#181818;stroke-width:1;"/><text fill="#000000" font-family="Monospace" font-size="13" lengthAdjust="spacing" textLength="133.6401" x="861" y="543.9649">scale&#160;feature&#160;columns</text></g><g class="link" data-entity-1="ent0011" data-entity-2="ent0012" data-link-type="dependency" id="lnk34"><polygon fill="#181818" points="680.8985,566.7962,688.5801,560.6323,683.1912,562.3528,681.4707,556.964,680.8985,566.7962" style="stroke:#181818;stroke-width:1;"/><path d="M789.9894,505.3085 C785.2722,506.9614 780.5857,508.5594 776,510.0679 C747.525,519.435 734.7796,509.8169 711,528.0679 C698.0432,538.0124 690.8523,547.5053 683.6498,561.4642" fill="none" style="stroke:#181818;stroke-width:1;"/><text fill="#000000" font-family="Monospace" font-size="13" lengthAdjust="spacing" textLength="134.6801" x="713" y="543.9649">build&#160;feature&#160;matrices</text></g><g class="link" data-entity-1="ent0017" data-entity-2="ent0005" data-link-type="dependency" id="lnk35"><polygon fill="#181818" points="1003.8266,334.6226,995.3553,329.5989,998.8608,334.0386,994.421,337.5441,1003.8266,334.6226" style="stroke:#181818;stroke-width:1;"/><path d="M863.0651,243.1019 C864.513,256.3871 868.4273,271.6004 878,282.0679 C910.1591,317.2332 958.8071,329.3286 997.8676,333.9218" fill="none" style="stroke:#181818;stroke-width:1;"/><text fill="#000000" font-family="Monospace" font-size="13" lengthAdjust="spacing" textLength="160.9531" x="880" y="276.9649">consume&#160;exported&#160;frames</text></g><g class="link" data-entity-1="ent0014" data-entity-2="ent0006" data-link-type="dependency" id="lnk36"><polygon fill="#181818" points="657,308.9255,661,299.9255,657,303.9255,653,299.9255,657,308.9255" style="stroke:#181818;stroke-width:1;"/><path d="M657,243.3638 C657,263.0732 657,283.2498 657,302.9255" fill="none" style="stroke:#181818;stroke-width:1;"/></g><g class="link" data-entity-1="ent0015" data-entity-2="ent0006" data-link-type="dependency" id="lnk37"><polygon fill="#181818" points="579.3021,312.8105,572.0844,306.1093,574.572,311.1899,569.4915,313.6775,579.3021,312.8105" style="stroke:#181818;stroke-width:1;"/><path d="M425.769,243.069 C447.7575,255.8818 474.7622,270.7038 500,282.0679 C525.2811,293.4516 548.0034,302.0871 573.626,310.8658" fill="none" style="stroke:#181818;stroke-width:1;"/></g><g class="link" data-entity-1="ent0015" data-entity-2="ent0016" data-link-type="dependency" id="lnk38"><polygon fill="#181818" points="167.3464,309.067,177.1952,309.0869,171.9195,307.0455,173.9608,301.7698,167.3464,309.067" style="stroke:#181818;stroke-width:1;"/><path d="M316.3335,243.2104 C271.5988,262.9844 217.4977,286.8986 172.8341,306.6412" fill="none" style="stroke:#181818;stroke-width:1;"/></g><g class="link" data-entity-1="ent0017" data-entity-2="ent0006" data-link-type="dependency" id="lnk39"><polygon fill="#181818" points="704.2802,309.067,714.0624,307.9225,708.5824,306.5191,709.9858,301.0391,704.2802,309.067" style="stroke:#181818;stroke-width:1;"/><path d="M815.4808,243.2104 C782.0918,262.9844 742.7787,286.267 709.4428,306.0096" fill="none" style="stroke:#181818;stroke-width:1;"/></g><g class="link" data-entity-1="ent0018" data-entity-2="ent0006" data-link-type="dependency" id="lnk40"><polygon fill="#181818" points="607.8157,309.0428,602.4635,300.7751,603.6281,306.3108,598.0924,307.4754,607.8157,309.0428" style="stroke:#181818;stroke-width:1;"/><path d="M480.7583,119.1441 C488.4521,151.5057 504.5354,205.1024 533,243.0679 C553.0133,269.7612 577.5503,289.298 602.7905,305.7644" fill="none" style="stroke:#181818;stroke-width:1;"/></g><g class="link" data-entity-1="ent0018" data-entity-2="ent0015" data-link-type="dependency" id="lnk41"><polygon fill="#181818" points="401.9142,184.9255,410.5997,180.282,404.9861,180.9804,404.2877,175.3669,401.9142,184.9255" style="stroke:#181818;stroke-width:1;"/><path d="M452.9663,119.3638 C437.6188,139.0732 420.9218,160.5157 405.6005,180.1914" fill="none" style="stroke:#181818;stroke-width:1;"/></g><?plantuml-src ZLLBRziu4BxhLymcnqsYnVPG88S5NDTkYqrtZIJONWmO53MskAP8beyawg_la7fOSjIYDudyvfkPRnxypLXsg1b8rkZWmTNecMAP5ruYcE0gLucztvd6Lrh1FHhjXDUsWONbbV38VR2OkQDGXbbMWwjOgP-5Ei2UIJU-AN7FWlHhhVm_h4Ruh9LsXd7Cif9vLZ27SB7fFO93HXvWiVbq0SoDGc56mELwkNgxVZColCUo51x-NGH_ChBfS6Anrx942nTtcZC9WxkjkldcF4INuWbTikv_Njak7_w373P_tsrL3C2XRmtwdy4WiwGFKmUIyk9SonlJR9K9XHGSH6sqzQGOPoKcglOJBj-_MotMgp7Fru2MB4bdoWxI7yIYHUTRnLG9L28FIjkQIV6DUQ5LeapGNLBhShrQlrc-dGzlBoJkEY_n-xfW_4Ykk9QIyDgs0GwedxCzOz6JVNnyt9on3BTp95Is7JkWyl0xk52qnNIKUlyDGZtHTUn6YtkBhce5eDWyMkh1v6E0xvodJEOySLtNGGbFGJBg7ssl8Y5QL1olW2X92MInqm7LGIWyiG-cLAjbBFkOjzObIa9Ip4T9_Qp0MoOKdLnj5SNBQXElaujOH2jusqczuHnfKhuY2qczICfG7wCbMRXx8bE7TI6RyvYvBYDRXT8GDhdelWSFOnUhbnWPkhpKFDGaSUgY6s4QLMmfV5ANSK-p0S5HXH8VTZPmkVfZ_UUqPpzOYcHtnuxeTXytozmqBaPUi5XEBeCZGlXV5rraXi-HtAFJmNAAwe5ROQBfry0icURFYCUy8O4d6ThUO8xjq_BBm-Sy2V-uUB_8KptQbKESWkRF3opjyGo9HnV3wAQOjaxYemo1LyYFBK423TPPDzdNrt-D9_AM_5pZIrm3tQJ6ZOns33-rsWHDwresdZfdZ1qQQ0BjJyV8y_6O69n6pMij9nxw_fdWWnTIU86EyZmjY5Uvuej7LRhiDFu_X6J35ewG4UajPQDyHRrUXjguRFf0HF29_JPfHtsSKqArS8wwkNjWij4RCIz7-wICLX18uNnKyJp7OV_VzciEQ2XpSvH0Rwi9_ZpZNp3ePNu5hmlQGz09dmrNvuqYDIj71tjwYQawfuDfATCoWNvlK4oXLkVeKMiLGSXoWDSiBZ1Y7qRcLT2qk-i-Q7fIkcYoONUa6gSUo-8McFaTXdhgfKEripPxG0JV0G00?></g></svg>
